<?xml version="1.0" encoding="UTF-8"?>
<svg version="1.1" xmlns="http://www.w3.org/2000/svg" width="500" height="500">
<path d="M0 0 C4.45783282 2.45098557 7.99286136 5.85110211 11.65429688 9.32666016 C15.44246959 12.90660101 19.37535467 16.19006831 23.5 19.375 C27.92907724 22.79567937 32.28380776 26.26714356 36.5625 29.875 C41.09200745 33.6795466 45.71733074 37.3313986 50.42285156 40.91333008 C54.77266949 44.23139399 59.04951925 47.63378797 63.3125 51.0625 C69.68323955 56.17783854 76.09673638 61.15516393 82.8125 65.8125 C87.82693303 69.29410327 92.72286923 72.92576556 97.625 76.5625 C103.67817421 81.04778725 109.77537529 85.44312967 116 89.6875 C116.6499292 90.13198486 117.2998584 90.57646973 117.96948242 91.03442383 C121.60107191 93.51731387 121.60107191 93.51731387 125.23779297 95.99267578 C126.81205098 97.06727197 128.37514928 98.15816417 129.9375 99.25 C130.80246094 99.84683594 131.66742188 100.44367188 132.55859375 101.05859375 C134.5 102.8125 134.5 102.8125 135.41796875 104.87890625 C135.5 106.8125 135.5 106.8125 133.375 109.3125 C128.62804265 113.440289 124.18247426 116.70510873 118.4375 119.3125 C117.7784668 119.61438232 117.11943359 119.91626465 116.44042969 120.22729492 C95.24702796 129.75716231 70.68446319 132.9744557 48.5 124.8125 C47.48292969 124.45027344 46.46585938 124.08804688 45.41796875 123.71484375 C33.30724695 119.03245459 22.96616738 112.58861203 13.23046875 104.11328125 C10.88717954 102.13875 8.59357572 100.49074646 6 98.875 C1.66442836 96.10397037 -1.9686302 92.71710802 -5.69604492 89.20263672 C-10.1304752 85.05879361 -14.80623905 81.30367777 -19.62182617 77.61352539 C-22.73349143 75.22601046 -25.66597748 72.77140011 -28.5 70.0625 C-31.25174108 67.50691536 -31.25174108 67.50691536 -34.3203125 67.91796875 C-38.03230976 68.96225299 -40.32527454 70.53191825 -43.375 72.875 C-44.34179688 73.60847656 -45.30859375 74.34195313 -46.3046875 75.09765625 C-47.02914062 75.66355469 -47.75359375 76.22945313 -48.5 76.8125 C-45.75571938 79.73383099 -43.04937725 81.86622014 -39.625 83.9375 C-33.26452138 87.89795802 -27.20942324 92.22080909 -21.14746094 96.61767578 C-19.67625563 97.68467026 -18.20163744 98.74695531 -16.7265625 99.80859375 C-11.27111295 103.74864065 -5.87891415 107.76906203 -0.5 111.8125 C9.26782327 119.1528505 19.16249707 126.28888439 29.16064453 133.31152344 C33.43609435 136.3244435 37.64797391 139.398116 41.8125 142.5625 C45.54547738 145.3938899 49.32843246 148.06150552 53.25 150.625 C59.40935589 154.67531574 65.26152846 159.07389187 71.13671875 163.51953125 C75.85648937 167.09046015 80.61126573 170.61300894 85.375 174.125 C86.18646484 174.72344727 86.99792969 175.32189453 87.83398438 175.93847656 C91.87419084 178.90960782 95.93270444 181.84137716 100.0625 184.6875 C104.17904048 187.5291949 108.04760539 190.62152757 111.9296875 193.7734375 C114.59054966 195.88433423 117.30816278 197.88788763 120.0625 199.875 C127.20899682 205.04199841 127.20899682 205.04199841 130.5625 207.5625 C131.27535156 208.09359375 131.98820312 208.6246875 132.72265625 209.171875 C134.61640861 210.9199541 135.50962256 212.45201491 136.5 214.8125 C134.47864182 216.97540339 132.56825152 218.49090629 129.97265625 219.90625 C129.27325928 220.29095459 128.5738623 220.67565918 127.85327148 221.07202148 C127.09731689 221.48137939 126.3413623 221.8907373 125.5625 222.3125 C124.76980713 222.74828369 123.97711426 223.18406738 123.16040039 223.63305664 C118.93822702 225.95163889 114.70198464 228.24351265 110.4609375 230.52734375 C86.08759506 243.70231561 62.17429732 259.24068681 41.6640625 277.9609375 C39.43229072 279.87043177 37.12687037 281.49100905 34.6875 283.125 C29.44016985 286.69122594 24.92643518 290.85165697 20.3125 295.1796875 C17.43461309 297.87370941 14.49817453 300.47611888 11.50390625 303.0390625 C9.95439655 304.41036348 8.44953621 305.83221061 6.96484375 307.2734375 C6.08957031 308.11132812 5.21429688 308.94921875 4.3125 309.8125 C3.51457031 310.59625 2.71664062 311.38 1.89453125 312.1875 C-0.5 313.8125 -0.5 313.8125 -3.00390625 313.78515625 C-5.90926043 312.65302293 -7.85629962 311.24866159 -10.25 309.25 C-11.12140625 308.52683594 -11.9928125 307.80367188 -12.890625 307.05859375 C-16.03300359 304.353702 -19.12663236 301.59930377 -22.20703125 298.82421875 C-25.45812562 295.97189575 -28.83917944 293.29609845 -32.23046875 290.61328125 C-35.02739315 288.39403487 -37.75718821 286.09817649 -40.5 283.8125 C-46.7032864 278.78968975 -52.98008703 273.86157379 -59.2668457 268.9440918 C-62.78754475 266.18267546 -66.25328589 263.36895527 -69.6875 260.5 C-76.99955837 254.47703044 -84.69489257 248.95810113 -92.34863281 243.38085938 C-94.13902086 242.07565592 -95.92548089 240.76506635 -97.7109375 239.453125 C-108.29815569 231.69123483 -119.15388437 224.33204449 -130.08984375 217.07421875 C-130.65791748 216.69475098 -131.22599121 216.3152832 -131.8112793 215.92431641 C-133.48756673 214.82068579 -135.18915606 213.75580445 -136.890625 212.69140625 C-139.5 210.8125 -139.5 210.8125 -140.3125 208.0625 C-138.57179397 201.09967589 -133.52773694 197.23014542 -127.55932617 193.60351562 C-107.06203487 181.81017463 -82.492416 179.90372092 -59.5 184.8125 C-51.12099173 187.31299233 -43.77948346 191.02883944 -36.5 195.8125 C-35.27607847 196.59901561 -34.05211721 197.38546938 -32.828125 198.171875 C-26.74266054 202.11955124 -20.8975248 206.06210158 -15.5546875 210.9921875 C-12.97309023 213.27930599 -10.24655872 215.35530546 -7.5 217.4375 C-2.39320662 221.31589644 2.60093022 225.31274059 7.5625 229.375 C9.57101804 231.00618487 11.58136555 232.63507558 13.59277344 234.26269531 C14.83211408 235.26977857 16.06739418 236.28188693 17.29785156 237.29980469 C18.91454657 238.63397047 20.54773946 239.94436564 22.1875 241.25 C23.09886719 241.99121094 24.01023437 242.73242188 24.94921875 243.49609375 C27.41727985 245.11386424 27.41727985 245.11386424 30.03515625 244.25390625 C32.60162121 242.75307334 34.91902059 241.15851054 37.25 239.3125 C38.02859375 238.7040625 38.8071875 238.095625 39.609375 237.46875 C41.5929808 235.94161467 41.5929808 235.94161467 42.5 233.8125 C41.77296875 233.56242188 41.0459375 233.31234375 40.296875 233.0546875 C37.2506507 231.70175548 35.26180759 230.12133272 32.75 227.9375 C27.32297017 223.38201747 21.64664142 219.30984739 15.83544922 215.26074219 C11.61422423 212.31535269 7.46546912 209.3119339 3.375 206.1875 C-1.83942745 202.21494872 -7.24876095 198.60152837 -12.77783203 195.08544922 C-14.38528108 194.04429415 -15.94774276 192.93428153 -17.5 191.8125 C-17.5 191.1525 -17.5 190.4925 -17.5 189.8125 C-18.05171875 189.55210937 -18.6034375 189.29171875 -19.171875 189.0234375 C-27.80126058 184.53499869 -35.55341514 178.3313558 -43.27416992 172.4609375 C-48.72966832 168.33406769 -54.31548455 164.43284684 -60.00878906 160.64135742 C-63.86747767 158.04455066 -67.37593016 155.24326354 -70.87231445 152.17822266 C-73.05004175 150.35098304 -75.37506848 148.89478076 -77.8125 147.4375 C-81.47341192 145.16555195 -84.8643548 142.80381506 -88.1875 140.0625 C-92.33710427 136.65903908 -96.63052394 133.58009529 -101.0625 130.5625 C-101.73837158 130.10222412 -102.41424316 129.64194824 -103.1105957 129.16772461 C-104.51687439 128.21053457 -105.92320681 127.25342344 -107.32958984 126.29638672 C-128.13565503 112.07149761 -128.13565503 112.07149761 -136.5 104.8125 C-137.26699219 104.1628125 -138.03398437 103.513125 -138.82421875 102.84375 C-140.5 100.8125 -140.5 100.8125 -140.53515625 98.76171875 C-139.11905701 96.09517716 -137.52126771 95.18450212 -134.9375 93.625 C-133.93847656 93.01785156 -132.93945312 92.41070312 -131.91015625 91.78515625 C-127.58315216 89.28213556 -123.21521736 86.85690902 -118.84106445 84.4375 C-112.87383271 81.10185887 -107.15050425 77.44225503 -101.43945312 73.68847656 C-97.80035262 71.29663484 -94.15259669 68.98274181 -90.375 66.8125 C-85.38916978 63.87866113 -80.8114942 60.43931388 -76.1784668 56.98706055 C-72.25647615 54.07195367 -68.28200986 51.29670721 -64.1875 48.625 C-59.62396656 45.62523735 -55.35991595 42.41312051 -51.140625 38.94921875 C-48.64014264 36.92589944 -46.09595051 34.98157215 -43.52807617 33.0456543 C-38.75552169 29.44127879 -34.27214179 25.78897373 -30.15234375 21.4375 C-28.3197669 19.63524948 -26.3767053 18.1556763 -24.3125 16.625 C-19.65908793 13.12294762 -15.67124679 9.10453691 -11.66137695 4.8996582 C-5.21589417 -1.76967838 -5.21589417 -1.76967838 0 0 Z " fill="#101010" transform="translate(252.5,16.1875)"/>
<path d="M0 0 C4.86865671 4.2654603 8.12389301 9.91772708 9.1875 16.3125 C9.22875 17.3025 9.27 18.2925 9.3125 19.3125 C6.62603983 21.99896017 -0.98422343 20.63082944 -4.84277344 20.66259766 C-6.31917073 20.67916085 -7.7954877 20.70645658 -9.27148438 20.74462891 C-11.39755927 20.79935107 -13.52175366 20.82126031 -15.6484375 20.8359375 C-17.56342041 20.8656665 -17.56342041 20.8656665 -19.51708984 20.89599609 C-22.6875 20.3125 -22.6875 20.3125 -24.42822266 17.86181641 C-24.84378418 17.02054199 -25.2593457 16.17926758 -25.6875 15.3125 C-31.55527143 12.89635882 -37.61823458 12.28941153 -43.6875 14.3125 C-44.6775 14.8075 -44.6775 14.8075 -45.6875 15.3125 C-44.49716716 18.42352893 -44.49716716 18.42352893 -41.78662109 20.17797852 C-41.01914551 20.34740967 -40.25166992 20.51684082 -39.4609375 20.69140625 C-38.60145508 20.88871338 -37.74197266 21.08602051 -36.85644531 21.28930664 C-35.47344238 21.57922485 -35.47344238 21.57922485 -34.0625 21.875 C-33.11987305 22.08697021 -32.17724609 22.29894043 -31.20605469 22.51733398 C-25.47390821 23.78645643 -19.72012557 24.86697428 -13.9375 25.875 C-5.25218972 27.45174497 2.07634161 29.78628773 8.3125 36.3125 C12.15055103 42.33859882 13.27353183 48.25711998 12.3125 55.3125 C10.12643364 62.21586747 6.5179076 67.17117191 0.4375 71 C-15.7870057 79.19152568 -39.25247484 78.55385769 -56.5859375 74.34765625 C-64.96302913 71.55177554 -71.38122478 67.16231534 -75.6875 59.3125 C-76.86700154 55.63102549 -76.83294614 52.16682262 -76.6875 48.3125 C-74.01754978 45.64254978 -66.42499235 47.03831511 -62.5871582 47.01733398 C-60.39405399 47.0001493 -58.20246859 46.95628426 -56.00976562 46.91210938 C-54.61459443 46.90198005 -53.2194104 46.8934647 -51.82421875 46.88671875 C-50.55280029 46.87213623 -49.28138184 46.85755371 -47.97143555 46.8425293 C-44.11156831 47.39492276 -43.0718211 48.31588996 -40.6875 51.3125 C-36.64994919 55.72857119 -34.67113296 56.18655505 -28.75 56.5625 C-24.9959653 56.53443245 -22.73248701 55.59624026 -19.6875 53.3125 C-19.80056697 51.35355639 -19.80056697 51.35355639 -20.6875 49.3125 C-24.21261817 47.58352282 -27.56981011 46.89936252 -31.44140625 46.3828125 C-33.0955957 46.14884766 -33.0955957 46.14884766 -34.78320312 45.91015625 C-37.0665141 45.59885413 -39.35036214 45.29146232 -41.63476562 44.98828125 C-54.18259152 43.19885217 -66.02145694 40.57665777 -74.125 30.1875 C-77.2118739 24.50765202 -77.48099926 18.54185107 -76.296875 12.23046875 C-74.45794215 6.25393698 -70.66653393 1.99372017 -65.6875 -1.6875 C-48.07804802 -10.34257059 -16.82297471 -11.08155582 0 0 Z " fill="#141214" transform="translate(83.6875,386.6875)"/>
<path d="M0 0 C1.12836525 0.00303635 1.12836525 0.00303635 2.27952576 0.00613403 C3.06810471 0.00438171 3.85668365 0.00262939 4.66915894 0.00082397 C7.28865223 -0.00359502 9.90807859 -0.00065639 12.52757263 0.00271606 C14.33978793 0.00204304 16.15200315 0.00107303 17.96421814 -0.00018311 C21.76740883 -0.00166014 25.57057607 0.00049466 29.37376404 0.00515747 C34.26010758 0.01085476 39.14639621 0.00757579 44.03273773 0.00158501 C47.77637652 -0.00202045 51.52000219 -0.00088209 55.26364136 0.0017128 C57.065857 0.00238211 58.86807381 0.0015535 60.67028809 -0.00076675 C63.18459754 -0.00329303 65.6988168 0.00054694 68.21311951 0.00613403 C68.96536301 0.0041098 69.71760651 0.00208557 70.49264526 0 C75.63206004 0.02126597 75.63206004 0.02126597 76.74632263 1.13552856 C76.95423615 3.73741773 77.07086359 6.28000726 77.12132263 8.88552856 C77.17739685 9.96060669 77.17739685 9.96060669 77.23460388 11.05740356 C77.29963353 14.98808465 77.0194743 16.80737045 74.47679138 19.86209106 C73.57573669 20.61232544 72.67468201 21.36255981 71.74632263 22.13552856 C70.38291808 23.66903158 69.02879302 25.21083243 67.68382263 26.76052856 C63.43331887 31.51687741 58.86232899 35.77427165 54.11717224 40.0305481 C50.58731135 43.24360609 47.21628274 46.60251067 43.85569763 49.99099731 C43.26385681 50.58537598 42.67201599 51.17975464 42.0622406 51.79214478 C40.6222927 53.23863789 39.18411886 54.68689669 37.74632263 56.13552856 C39.51060608 56.17311279 39.51060608 56.17311279 41.31053162 56.2114563 C45.65846885 56.30535663 50.00623979 56.40561905 54.35398865 56.50784302 C56.23871481 56.5512579 58.12348199 56.592928 60.00828552 56.63284302 C62.71145512 56.6903875 65.41441699 56.75412661 68.11741638 56.81912231 C68.96533249 56.83583481 69.8132486 56.8525473 70.68685913 56.86976624 C76.63245093 57.02165686 76.63245093 57.02165686 77.74632263 58.13552856 C77.83301695 59.62424716 77.85335757 61.11697356 77.84397888 62.60818481 C77.8391449 63.95686646 77.8391449 63.95686646 77.83421326 65.33279419 C77.8216449 66.75108521 77.8216449 66.75108521 77.80882263 68.19802856 C77.80431091 69.1474231 77.79979919 70.09681763 77.79515076 71.07498169 C77.78332373 73.42855922 77.76684289 75.78201334 77.74632263 78.13552856 C67.10692326 78.33556878 56.46738013 78.51930825 45.82734203 78.68211651 C40.88698677 78.75822619 35.94685909 78.83999416 31.00682068 78.93460083 C26.24131929 79.02565829 21.47579085 79.10197339 16.70987892 79.16797829 C14.88968889 79.19579575 13.0695727 79.22896657 11.24957848 79.26752281 C8.70445306 79.3205352 6.15973234 79.3546758 3.61424255 79.38430786 C2.85826782 79.40444443 2.10229309 79.42458099 1.32341003 79.44532776 C-3.76045523 79.47675131 -3.76045523 79.47675131 -6.22271729 77.77330017 C-7.70051294 75.4256906 -7.61619286 73.6402277 -7.56617737 70.88552856 C-7.56231018 69.97287231 -7.55844299 69.06021606 -7.55445862 68.11990356 C-6.67015636 59.34578767 -3.42119106 55.60762026 2.81663513 49.57693481 C3.61286285 48.78778183 4.40909058 47.99862885 5.22944641 47.18556213 C7.76520777 44.6776989 10.31782661 42.1878194 12.87132263 39.69802856 C14.59772596 37.9967136 16.32299995 36.29425182 18.04710388 34.59060669 C22.26718199 30.42553751 26.50122202 26.27508324 30.74632263 22.13552856 C29.11835754 22.09794434 29.11835754 22.09794434 27.45750427 22.05960083 C23.44500664 21.96569101 19.43268881 21.8654309 15.4203949 21.76321411 C13.68117976 21.71980283 11.94192028 21.67813244 10.20262146 21.63821411 C7.70793775 21.58066088 5.21347853 21.51692437 2.71897888 21.45193481 C1.54553673 21.42686607 1.54553673 21.42686607 0.34838867 21.40129089 C-5.13980566 21.24940027 -5.13980566 21.24940027 -6.25367737 20.13552856 C-6.35227868 18.73204121 -6.38446673 17.32372379 -6.38648987 15.91677856 C-6.38777893 15.06728638 -6.38906799 14.21779419 -6.39039612 13.34255981 C-6.38652893 12.4492395 -6.38266174 11.55591919 -6.37867737 10.63552856 C-6.38254456 9.74220825 -6.38641174 8.84888794 -6.39039612 7.92849731 C-6.38910706 7.07900513 -6.38781799 6.22951294 -6.38648987 5.35427856 C-6.38536194 4.56988403 -6.38423401 3.7854895 -6.3830719 2.97732544 C-6.10569568 -0.97083717 -3.30732143 0.0136851 0 0 Z " fill="#0F0E0F" transform="translate(197.25367736816406,381.8644714355469)"/>
<path d="M0 0 C1.1653125 -0.00128906 2.330625 -0.00257813 3.53125 -0.00390625 C4.7584375 -0.00003906 5.985625 0.00382812 7.25 0.0078125 C9.09078125 0.00201172 9.09078125 0.00201172 10.96875 -0.00390625 C12.71671875 -0.00197266 12.71671875 -0.00197266 14.5 0 C15.57765625 0.00112793 16.6553125 0.00225586 17.765625 0.00341797 C20.25 0.1328125 20.25 0.1328125 21.25 1.1328125 C21.40764405 2.91150976 21.50100677 4.69599726 21.56640625 6.48046875 C21.60830078 7.56005859 21.65019531 8.63964844 21.69335938 9.75195312 C21.73267578 10.88826172 21.77199219 12.02457031 21.8125 13.1953125 C21.85568359 14.33548828 21.89886719 15.47566406 21.94335938 16.65039062 C22.04982839 19.47773445 22.15184207 22.30516988 22.25 25.1328125 C23.02085937 24.33875 23.79171875 23.5446875 24.5859375 22.7265625 C25.59869317 21.69505209 26.61172852 20.66381623 27.625 19.6328125 C28.13289063 19.10816406 28.64078125 18.58351563 29.1640625 18.04296875 C30.48832604 16.70128069 31.86605865 15.41285435 33.25 14.1328125 C33.91 14.1328125 34.57 14.1328125 35.25 14.1328125 C35.25 13.4728125 35.25 12.8128125 35.25 12.1328125 C35.91 12.1328125 36.57 12.1328125 37.25 12.1328125 C37.518125 11.55982422 37.78625 10.98683594 38.0625 10.39648438 C40.40646142 5.92830792 42.84914469 2.72974087 47.25 0.1328125 C53.28356385 -0.85580521 59.16108712 -0.6252026 65.25 -0.3671875 C66.89965313 -0.32700738 68.54940043 -0.29051455 70.19921875 -0.2578125 C74.21849196 -0.17016801 78.2331995 -0.03243562 82.25 0.1328125 C81.68415212 3.58973854 80.71950043 4.92457763 78.00390625 7.08984375 C72.35734976 11.8161086 67.14179886 16.94648129 61.91040039 22.12231445 C60.75092868 23.26502747 59.58609371 24.40232126 58.41625977 25.53442383 C56.71198786 27.18426128 55.02446083 28.84965869 53.33984375 30.51953125 C52.81293442 31.02377121 52.28602509 31.52801117 51.7431488 32.04753113 C50.12056949 33.62174898 50.12056949 33.62174898 48.25 36.1328125 C48.35616641 40.24035425 51.11259224 42.53106092 53.8125 45.4453125 C54.2657666 45.93531738 54.7190332 46.42532227 55.18603516 46.93017578 C58.29211377 50.24165108 61.56700049 53.20100066 65.0390625 56.11328125 C69.65016273 60.32518729 73.74805135 65.07083555 77.92382812 69.70849609 C79.09908057 70.97072414 80.34987454 72.16166865 81.609375 73.33984375 C83.25 75.1328125 83.25 75.1328125 83.25 78.1328125 C78.87571219 80.31995641 72.99039865 79.35991871 68.12915039 79.37304688 C65.95615017 79.3827294 63.78410537 79.41374076 61.61132812 79.4453125 C60.22396394 79.45184519 58.836593 79.45709462 57.44921875 79.4609375 C56.18940186 79.4702832 54.92958496 79.47962891 53.6315918 79.48925781 C45.31094376 78.61219867 40.02822975 71.23412756 34.875 65.2578125 C30.86778927 60.69788305 26.54247565 56.42528815 22.25 52.1328125 C21.92 60.7128125 21.59 69.2928125 21.25 78.1328125 C18.66276011 79.42643244 16.76886997 79.26230199 13.875 79.265625 C12.80765625 79.26691406 11.7403125 79.26820313 10.640625 79.26953125 C9.52171875 79.26566406 8.4028125 79.26179688 7.25 79.2578125 C6.13109375 79.26167969 5.0121875 79.26554687 3.859375 79.26953125 C2.79203125 79.26824219 1.7246875 79.26695312 0.625 79.265625 C-0.35726563 79.26449707 -1.33953125 79.26336914 -2.3515625 79.26220703 C-4.75 79.1328125 -4.75 79.1328125 -6.75 78.1328125 C-6.7731241 68.11053487 -6.79091543 58.08826353 -6.80181217 48.0659647 C-6.80704085 43.41270064 -6.81413823 38.75945476 -6.82543945 34.10620117 C-6.83626886 29.61936704 -6.84227695 25.13255046 -6.84487724 20.64570427 C-6.8467314 18.93000957 -6.85035182 17.21431588 -6.85573006 15.49862862 C-6.86294121 13.10396337 -6.86399091 10.70937154 -6.86352539 8.31469727 C-6.86712067 7.59828568 -6.87071594 6.88187408 -6.87442017 6.14375305 C-6.86111224 -0.14168151 -6.12399694 0.00640969 0 0 Z " fill="#111010" transform="translate(378.75,381.8671875)"/>
<path d="M0 0 C0.91523438 0.00515625 1.83046875 0.0103125 2.7734375 0.015625 C3.72734375 0.03625 4.68125 0.056875 5.6640625 0.078125 C7.08332031 0.08585937 7.08332031 0.08585937 8.53125 0.09375 C17.10442486 0.19007781 17.10442486 0.19007781 21.2890625 1.328125 C22.49559202 3.74118404 22.4222475 5.27503247 22.43432617 7.97045898 C22.44070602 8.93584091 22.44708588 9.90122284 22.45365906 10.89585876 C22.45477188 11.94471756 22.4558847 12.99357635 22.45703125 14.07421875 C22.46202385 15.69554466 22.46202385 15.69554466 22.46711731 17.34962463 C22.47219024 19.64543227 22.47452552 21.94124731 22.47436523 24.23706055 C22.4765341 27.72001688 22.49463694 31.20264738 22.51367188 34.68554688 C22.51660939 36.91926976 22.51859179 39.15299414 22.51953125 41.38671875 C22.52671677 42.41735947 22.53390228 43.44800018 22.54130554 44.50987244 C22.50547081 56.08449111 21.42974027 66.01199929 13.1015625 74.578125 C-2.28513497 84.15207009 -24.01454068 84.11974728 -41.390625 80.578125 C-48.78337387 78.52932624 -55.87591403 75.94540007 -60.046875 69.15234375 C-62.8842541 63.16567508 -63.83475391 57.31719397 -63.84033203 50.70581055 C-63.84348419 49.62837082 -63.84663635 48.55093109 -63.84988403 47.44084167 C-63.8478598 46.29376236 -63.84583557 45.14668304 -63.84375 43.96484375 C-63.84470673 42.77711868 -63.84566345 41.58939362 -63.84664917 40.36567688 C-63.84732814 37.86349433 -63.84549365 35.36131 -63.84130859 32.85913086 C-63.83593267 29.01216736 -63.84127533 25.16531936 -63.84765625 21.31835938 C-63.84699588 18.88802057 -63.84571558 16.45768185 -63.84375 14.02734375 C-63.84577423 12.87014328 -63.84779846 11.71294281 -63.84988403 10.52067566 C-63.84673187 9.45899673 -63.84357971 8.39731781 -63.84033203 7.3034668 C-63.83953644 6.36448044 -63.83874084 5.42549408 -63.83792114 4.45805359 C-63.7109375 2.328125 -63.7109375 2.328125 -62.7109375 1.328125 C-60.79635468 1.22840714 -58.87811433 1.19731911 -56.9609375 1.1953125 C-55.795625 1.19402344 -54.6303125 1.19273437 -53.4296875 1.19140625 C-52.2025 1.19527344 -50.9753125 1.19914062 -49.7109375 1.203125 C-47.87015625 1.19732422 -47.87015625 1.19732422 -45.9921875 1.19140625 C-44.24421875 1.19333984 -44.24421875 1.19333984 -42.4609375 1.1953125 C-41.38328125 1.19644043 -40.305625 1.19756836 -39.1953125 1.19873047 C-36.7109375 1.328125 -36.7109375 1.328125 -35.7109375 2.328125 C-35.59903307 3.76919979 -35.55422941 5.21557405 -35.53735352 6.66088867 C-35.52386368 7.58242233 -35.51037384 8.50395599 -35.49647522 9.45341492 C-35.48603683 10.45749893 -35.47559845 11.46158295 -35.46484375 12.49609375 C-35.43189121 14.6074258 -35.39867981 16.71875382 -35.36523438 18.83007812 C-35.3178965 22.16997358 -35.27350553 25.50985436 -35.23413086 28.84985352 C-35.19431443 32.06544717 -35.14277532 35.28069295 -35.08984375 38.49609375 C-35.0814296 39.49005661 -35.07301544 40.48401947 -35.06434631 41.50810242 C-34.97634237 46.46457519 -34.78317379 50.72771433 -32.7109375 55.328125 C-28.86426633 58.92662383 -25.13223825 59.64708176 -19.91015625 59.53125 C-16.25376289 59.19353694 -12.53868683 58.7708756 -9.7109375 56.328125 C-7.70013161 50.04452419 -7.48248594 44.36623938 -7.62109375 37.80859375 C-7.64149372 35.79752824 -7.66166951 33.78646044 -7.68164062 31.77539062 C-7.72530923 28.63051096 -7.77394452 25.48579323 -7.82739258 22.34106445 C-7.8755136 19.28857993 -7.90546915 16.23631806 -7.93359375 13.18359375 C-7.95535172 12.23985397 -7.97710968 11.2961142 -7.99952698 10.32377625 C-8.00620895 9.44889053 -8.01289093 8.57400482 -8.01977539 7.67260742 C-8.03246964 6.90397873 -8.04516388 6.13535004 -8.0582428 5.34342957 C-7.26031649 0.7133115 -4.23373233 -0.0475424 0 0 Z " fill="#111011" transform="translate(343.7109375,380.671875)"/>
<path d="M0 0 C9.24 0 18.48 0 28 0 C28.04898438 3.31160156 28.09796875 6.62320312 28.1484375 10.03515625 C28.20250408 13.25549698 28.25978931 16.47576556 28.31738281 19.69604492 C28.35557883 21.9277607 28.39044781 24.15953607 28.421875 26.39135742 C28.46772929 29.60617314 28.52569037 32.82058192 28.5859375 36.03515625 C28.59748871 37.02709488 28.60903992 38.01903351 28.62094116 39.04103088 C28.61801542 48.18799091 28.61801542 48.18799091 32.875 55.875 C38.11748694 58.65043426 43.43224958 58.55382852 49.1875 57.3125 C52.81478857 55.61976533 53.9418985 54.47648634 56 51 C56.61693959 47.12341307 56.60495621 43.27477451 56.609375 39.35546875 C56.62591125 38.2305452 56.64244751 37.10562164 56.65948486 35.9466095 C56.70799783 32.3601843 56.72934409 28.77418326 56.75 25.1875 C56.77815677 22.75323383 56.80808378 20.31898745 56.83984375 17.88476562 C56.91375782 11.92325417 56.9653811 5.96186216 57 0 C61.47915328 -0.02886338 65.95828291 -0.04675187 70.4375 -0.0625 C71.71689453 -0.07087891 72.99628906 -0.07925781 74.31445312 -0.08789062 C76.13686523 -0.09272461 76.13686523 -0.09272461 77.99609375 -0.09765625 C79.12200928 -0.10289307 80.2479248 -0.10812988 81.40795898 -0.11352539 C84 0 84 0 85 1 C85.10369181 2.52687174 85.13851648 4.05849345 85.14526367 5.58886719 C85.15164352 6.56789001 85.15802338 7.54691284 85.16459656 8.55560303 C85.16570938 9.62522278 85.1668222 10.69484253 85.16796875 11.796875 C85.17296135 13.44650238 85.17296135 13.44650238 85.17805481 15.12945557 C85.18313361 17.46992575 85.18546284 19.81040322 85.18530273 22.15087891 C85.1874653 25.69316047 85.20554385 29.23511838 85.22460938 32.77734375 C85.30550043 63.88580973 85.30550043 63.88580973 78.83203125 71.3515625 C67.23714339 81.78448932 50.32807454 81.39898316 35.61621094 80.92285156 C25.28770768 80.29087079 15.03626533 78.21401793 6.9375 71.4375 C6.298125 70.633125 5.65875 69.82875 5 69 C4.443125 68.38125 3.88625 67.7625 3.3125 67.125 C-0.95383851 60.21759479 -0.26091585 52.46217035 -0.1953125 44.62890625 C-0.1924826 43.35144028 -0.18965271 42.0739743 -0.18673706 40.75779724 C-0.17747007 37.38266422 -0.15954066 34.00780796 -0.1373291 30.63275146 C-0.11676863 27.18032245 -0.10760361 23.72786385 -0.09765625 20.27539062 C-0.077354 13.51677261 -0.03819637 6.75863519 0 0 Z " fill="#131112" transform="translate(100,382)"/>
<path d="M0 0 C1.12591553 0.00523682 2.25183105 0.01047363 3.41186523 0.01586914 C4.62680664 0.0190918 5.84174805 0.02231445 7.09350586 0.02563477 C8.37290039 0.03401367 9.65229492 0.04239258 10.97045898 0.05102539 C12.2537207 0.05553711 13.53698242 0.06004883 14.85913086 0.06469727 C18.04211921 0.07652994 21.22501661 0.09301471 24.40795898 0.11352539 C26.15640893 26.09049595 25.67763442 52.12570051 24.40795898 78.11352539 C22.17990679 78.31383437 19.95039441 78.49790112 17.72045898 78.67602539 C15.8584082 78.83264648 15.8584082 78.83264648 13.95874023 78.99243164 C10.14361844 79.19557706 6.42950548 78.93189199 2.62353516 78.62109375 C1.45803635 78.52718857 0.29253754 78.43328339 -0.90827942 78.33653259 C-2.23674141 78.22614403 -2.23674141 78.22614403 -3.59204102 78.11352539 C-3.61516511 68.09124776 -3.63295644 58.06897642 -3.64385319 48.04667759 C-3.64908187 43.39341353 -3.65617924 38.74016765 -3.66748047 34.08691406 C-3.67830988 29.60007993 -3.68431796 25.11326335 -3.68691826 20.62641716 C-3.68877241 18.91072246 -3.69239284 17.19502878 -3.69777107 15.47934151 C-3.70498223 13.08467626 -3.70603193 10.69008443 -3.70556641 8.29541016 C-3.70916168 7.57899857 -3.71275696 6.86258698 -3.71646118 6.12446594 C-3.70383753 0.1622195 -3.70383753 0.1622195 0 0 Z " fill="#191719" transform="translate(469.592041015625,381.886474609375)"/>
<path d="M0 0 C0.91523438 0.00515625 1.83046875 0.0103125 2.7734375 0.015625 C3.72734375 0.03625 4.68125 0.056875 5.6640625 0.078125 C7.08332031 0.08585937 7.08332031 0.08585937 8.53125 0.09375 C17.10442486 0.19007781 17.10442486 0.19007781 21.2890625 1.328125 C22.49559202 3.74118404 22.4222475 5.27503247 22.43432617 7.97045898 C22.44070602 8.93584091 22.44708588 9.90122284 22.45365906 10.89585876 C22.45477188 11.94471756 22.4558847 12.99357635 22.45703125 14.07421875 C22.46035965 15.15510269 22.46368805 16.23598663 22.46711731 17.34962463 C22.47219024 19.64543227 22.47452552 21.94124731 22.47436523 24.23706055 C22.4765341 27.72001688 22.49463694 31.20264738 22.51367188 34.68554688 C22.51660939 36.91926976 22.51859179 39.15299414 22.51953125 41.38671875 C22.52671677 42.41735947 22.53390228 43.44800018 22.54130554 44.50987244 C22.48675272 62.13043478 22.48675272 62.13043478 18.2890625 66.328125 C18.6190625 45.538125 18.9490625 24.748125 19.2890625 3.328125 C11.0390625 3.328125 2.7890625 3.328125 -5.7109375 3.328125 C-5.7109375 17.848125 -5.7109375 32.368125 -5.7109375 47.328125 C-6.0409375 47.328125 -6.3709375 47.328125 -6.7109375 47.328125 C-6.92785644 41.11725329 -7.12474465 34.90619426 -7.30297852 28.6940918 C-7.36646173 26.58031179 -7.43544541 24.46668961 -7.51000977 22.35327148 C-7.6161554 19.31779124 -7.70259616 16.28229556 -7.78515625 13.24609375 C-7.82251389 12.29913132 -7.85987152 11.35216888 -7.89836121 10.37651062 C-7.91860855 9.49582413 -7.9388559 8.61513763 -7.9597168 7.70776367 C-7.98414352 6.93277023 -8.00857025 6.15777679 -8.03373718 5.35929871 C-7.29446748 0.70754328 -4.22910671 -0.04749045 0 0 Z " fill="#625D60" transform="translate(343.7109375,380.671875)"/>
<path d="M0 0 C1.1653125 -0.00128906 2.330625 -0.00257813 3.53125 -0.00390625 C4.7584375 -0.00003906 5.985625 0.00382812 7.25 0.0078125 C9.09078125 0.00201172 9.09078125 0.00201172 10.96875 -0.00390625 C12.71671875 -0.00197266 12.71671875 -0.00197266 14.5 0 C15.57765625 0.00112793 16.6553125 0.00225586 17.765625 0.00341797 C20.25 0.1328125 20.25 0.1328125 21.25 1.1328125 C21.36190443 2.57388729 21.40670809 4.02026155 21.42358398 5.46557617 C21.43707382 6.38710983 21.45056366 7.30864349 21.46446228 8.25810242 C21.47490067 9.26218643 21.48533905 10.26627045 21.49609375 11.30078125 C21.52904629 13.4121133 21.56225769 15.52344132 21.59570312 17.63476562 C21.643041 20.97466108 21.68743197 24.31454186 21.72680664 27.65454102 C21.76662307 30.87013467 21.81816218 34.08538045 21.87109375 37.30078125 C21.8795079 38.29474411 21.88792206 39.28870697 21.89659119 40.31278992 C22.05138761 49.08821064 22.05138761 49.08821064 26.375 56.5078125 C26.99375 57.0440625 27.6125 57.5803125 28.25 58.1328125 C21.375 57.2578125 21.375 57.2578125 20.25 56.1328125 C20.12709282 54.47636884 20.07216092 52.81482257 20.04467773 51.15405273 C20.02473251 50.09302841 20.00478729 49.03200409 19.98423767 47.93882751 C19.96752518 46.7846785 19.95081268 45.63052948 19.93359375 44.44140625 C19.91281265 43.26643082 19.89203156 42.09145538 19.87062073 40.88087463 C19.80499876 37.11074926 19.7461817 33.34055168 19.6875 29.5703125 C19.6443268 27.02147677 19.60071292 24.47264847 19.55664062 21.92382812 C19.4484716 15.66022931 19.34949207 9.3965793 19.25 3.1328125 C11.33 2.8028125 3.41 2.4728125 -4.75 2.1328125 C-4.68692074 9.57442285 -4.61137491 17.01566031 -4.51428509 24.45691013 C-4.46968504 27.91273702 -4.43040688 31.36844884 -4.40356445 34.82446289 C-4.37241864 38.80380063 -4.31763342 42.78264899 -4.26171875 46.76171875 C-4.25532883 47.99426895 -4.2489389 49.22681915 -4.24235535 50.49671936 C-4.13311554 56.90224055 -3.57377781 61.40334426 -0.75 67.1328125 C-1.08 68.1228125 -1.41 69.1128125 -1.75 70.1328125 C-2.40489373 68.76210469 -3.04844963 67.38597806 -3.6875 66.0078125 C-4.22697266 64.85925781 -4.22697266 64.85925781 -4.77734375 63.6875 C-6.53975969 59.05850393 -6.87524436 54.42942459 -6.87939453 49.51049805 C-6.88254669 48.43305832 -6.88569885 47.35561859 -6.88894653 46.24552917 C-6.8869223 45.09844986 -6.88489807 43.95137054 -6.8828125 42.76953125 C-6.88376923 41.58180618 -6.88472595 40.39408112 -6.88571167 39.17036438 C-6.88639064 36.66818183 -6.88455615 34.1659975 -6.88037109 31.66381836 C-6.87499517 27.81685486 -6.88033783 23.97000686 -6.88671875 20.12304688 C-6.88605838 17.69270807 -6.88477808 15.26236935 -6.8828125 12.83203125 C-6.88483673 11.67483078 -6.88686096 10.51763031 -6.88894653 9.32536316 C-6.88579437 8.26368423 -6.88264221 7.20200531 -6.87939453 6.1081543 C-6.87859894 5.16916794 -6.87780334 4.23018158 -6.87698364 3.26274109 C-6.61827777 -1.07659764 -3.69884168 0.0038714 0 0 Z " fill="#484246" transform="translate(286.75,381.8671875)"/>
<path d="M0 0 C0.33 0 0.66 0 1 0 C1.33 24.75 1.66 49.5 2 75 C9.92 75 17.84 75 26 75 C26.33 66.09 26.66 57.18 27 48 C28.32 48.33 29.64 48.66 31 49 C31.99 48.505 31.99 48.505 33 48 C34.5625 49.1875 34.5625 49.1875 36 51 C35.6875 53.6875 35.6875 53.6875 35 56 C32.03 53.525 32.03 53.525 29 51 C28.67 59.58 28.34 68.16 28 77 C25.41276011 78.29361994 23.51886997 78.12948949 20.625 78.1328125 C19.55765625 78.13410156 18.4903125 78.13539063 17.390625 78.13671875 C16.27171875 78.13285156 15.1528125 78.12898438 14 78.125 C12.88109375 78.12886719 11.7621875 78.13273437 10.609375 78.13671875 C9.54203125 78.13542969 8.4746875 78.13414062 7.375 78.1328125 C6.39273437 78.13168457 5.41046875 78.13055664 4.3984375 78.12939453 C2 78 2 78 0 77 C0 51.59 0 26.18 0 0 Z " fill="#817D7F" transform="translate(372,383)"/>
<path d="M0 0 C0.495 1.485 0.495 1.485 1 3 C0.52949219 3.31453125 0.05898437 3.6290625 -0.42578125 3.953125 C-3.93732861 6.36685942 -6.52540819 8.48347479 -9 12 C-9.66 12 -10.32 12 -11 12 C-11 12.66 -11 13.32 -11 14 C-10.01 14.33 -9.02 14.66 -8 15 C-13.5643422 16.9410496 -13.5643422 16.9410496 -16.3671875 17.3203125 C-19.73001859 18.18846177 -21.71286163 19.80030139 -24.4375 21.9375 C-28.24115967 24.91874677 -31.40980934 26.54008263 -36 28 C-37.24174796 29.9001177 -37.24174796 29.9001177 -38 32 C-39.625 33.75 -39.625 33.75 -41 35 C-39.35 34.34 -37.7 33.68 -36 33 C-36 33.66 -36 34.32 -36 35 C-38.25 36.6875 -38.25 36.6875 -41 38 C-43.1875 37.6875 -43.1875 37.6875 -45 37 C-47.42797311 37 -49.62907005 37.50085685 -52 38 C-49.84677969 35.60753299 -47.44744829 33.94438066 -44.77050781 32.18212891 C-41.44473065 29.96158106 -38.19836384 27.62682861 -34.9375 25.3125 C-29.67411133 21.58163438 -24.39025802 17.88831456 -19.0625 14.25 C-14.20807805 10.90611337 -9.57593041 7.37223514 -5.0234375 3.62890625 C-3 2 -3 2 0 0 Z " fill="#8C848B" transform="translate(211,48)"/>
<path d="M0 0 C8.58 0 17.16 0 26 0 C27.71443219 1.71443219 27.23052967 4.00445241 27.31640625 6.34765625 C27.35830078 7.42724609 27.40019531 8.50683594 27.44335938 9.61914062 C27.48267578 10.75544922 27.52199219 11.89175781 27.5625 13.0625 C27.60568359 14.20267578 27.64886719 15.34285156 27.69335938 16.51757812 C27.79982839 19.34492195 27.90184207 22.17235738 28 25 C28.66 24.67 29.32 24.34 30 24 C29.34 25.32 28.68 26.64 28 28 C27.01 28 26.02 28 25 28 C25 19.42 25 10.84 25 2 C17.08 2 9.16 2 1 2 C1 25.76 1 49.52 1 74 C0.67 74 0.34 74 0 74 C0 49.58 0 25.16 0 0 Z " fill="#211A1D" transform="translate(373,382)"/>
<path d="M0 0 C2.19310422 -0.01718468 4.38468961 -0.06104973 6.57739258 -0.10522461 C7.97256377 -0.11535393 9.3677478 -0.12386929 10.76293945 -0.13061523 C12.03435791 -0.14519775 13.30577637 -0.15978027 14.61572266 -0.17480469 C18.4749073 0.37749109 19.51342994 1.30171084 21.8996582 4.29516602 C24.41941658 6.97240929 26.50550204 8.84052766 29.8996582 10.29516602 C27.5896582 10.95516602 25.2796582 11.61516602 22.8996582 12.29516602 C20.8996582 10.29516602 20.8996582 10.29516602 20.7746582 7.67016602 C20.8159082 6.88641602 20.8571582 6.10266602 20.8996582 5.29516602 C20.2396582 5.29516602 19.5796582 5.29516602 18.8996582 5.29516602 C18.4046582 4.30516602 18.4046582 4.30516602 17.8996582 3.29516602 C3.0496582 2.80016602 3.0496582 2.80016602 -12.1003418 2.29516602 C-12.1003418 4.93516602 -12.1003418 7.57516602 -12.1003418 10.29516602 C-11.4403418 9.96516602 -10.7803418 9.63516602 -10.1003418 9.29516602 C-10.4303418 7.64516602 -10.7603418 5.99516602 -11.1003418 4.29516602 C-6.1503418 4.29516602 -1.2003418 4.29516602 3.8996582 4.29516602 C3.5696582 4.95516602 3.2396582 5.61516602 2.8996582 6.29516602 C1.6415332 6.39829102 0.3834082 6.50141602 -0.9128418 6.60766602 C-4.48453148 6.94110922 -4.92465023 7.11508216 -7.6003418 9.85766602 C-8.0953418 10.66204102 -8.5903418 11.46641602 -9.1003418 12.29516602 C-7.8511676 15.75441765 -6.42506385 18.44209805 -4.1003418 21.29516602 C-8.55623011 19.80986991 -10.86676789 16.23090591 -13.1003418 12.29516602 C-14.27517219 8.61210876 -14.2457966 5.1497183 -14.1003418 1.29516602 C-11.43039158 -1.3747842 -3.83783415 0.02098113 0 0 Z " fill="#312E32" transform="translate(21.100341796875,433.704833984375)"/>
<path d="M0 0 C1.13072182 0.00539291 1.13072182 0.00539291 2.2842865 0.01089478 C3.46956436 0.01067574 3.46956436 0.01067574 4.67878723 0.01045227 C7.30309245 0.0111516 9.92732759 0.01894489 12.55162048 0.02676392 C14.36623089 0.02862803 16.18084179 0.03005196 17.99545288 0.03105164 C22.78111653 0.03487737 27.56675003 0.04470813 32.35240173 0.05575562 C37.23195488 0.06596854 42.11151287 0.070549 46.99107361 0.07559204 C56.57246709 0.08633035 66.15383816 0.10340744 75.73521423 0.12442017 C75.73521423 0.45442017 75.73521423 0.78442017 75.73521423 1.12442017 C49.33521423 1.45442017 22.93521423 1.78442017 -4.26478577 2.12442017 C-4.26478577 7.73442017 -4.26478577 13.34442017 -4.26478577 19.12442017 C14.05021423 19.61942017 14.05021423 19.61942017 32.73521423 20.12442017 C32.40521423 21.44442017 32.07521423 22.76442017 31.73521423 24.12442017 C31.07521423 23.79442017 30.41521423 23.46442017 29.73521423 23.12442017 C30.23021423 22.62942017 30.23021423 22.62942017 30.73521423 22.12442017 C29.10724915 22.08683594 29.10724915 22.08683594 27.44639587 22.04849243 C23.43389824 21.95458261 19.42158041 21.8543225 15.4092865 21.75210571 C13.67007136 21.70869443 11.93081188 21.66702405 10.19151306 21.62710571 C7.69682935 21.56955249 5.20237013 21.50581597 2.70787048 21.44082642 C1.92557571 21.42411392 1.14328094 21.40740143 0.33728027 21.3901825 C-5.15091406 21.23829187 -5.15091406 21.23829187 -6.26478577 20.12442017 C-6.36338708 18.72093281 -6.39557513 17.31261539 -6.39759827 15.90567017 C-6.39888733 15.05617798 -6.40017639 14.20668579 -6.40150452 13.33145142 C-6.39763733 12.4381311 -6.39377014 11.54481079 -6.38978577 10.62442017 C-6.39365295 9.73109985 -6.39752014 8.83777954 -6.40150452 7.91738892 C-6.40021545 7.06789673 -6.39892639 6.21840454 -6.39759827 5.34317017 C-6.39647034 4.55877563 -6.39534241 3.7743811 -6.3941803 2.96621704 C-6.11636478 -0.98819851 -3.30931436 0.00666138 0 0 Z " fill="#544D52" transform="translate(197.26478576660156,381.8755798339844)"/>
<path d="M0 0 C6.6515625 -0.0309375 6.6515625 -0.0309375 13.4375 -0.0625 C14.83798584 -0.071604 16.23847168 -0.08070801 17.68139648 -0.09008789 C19.32217163 -0.09383423 19.32217163 -0.09383423 20.99609375 -0.09765625 C22.12200928 -0.10289307 23.2479248 -0.10812988 24.40795898 -0.11352539 C27 0 27 0 28 1 C28.09326716 2.56547048 28.11745582 4.13512772 28.11352539 5.70336914 C28.11344986 6.70433121 28.11337433 7.70529327 28.11329651 8.73658752 C28.10813522 9.8251152 28.10297394 10.91364288 28.09765625 12.03515625 C28.0962413 13.14354355 28.09482635 14.25193085 28.09336853 15.39390564 C28.08775033 18.95013069 28.07519475 22.50629383 28.0625 26.0625 C28.05748734 28.46679597 28.05292403 30.87109292 28.04882812 33.27539062 C28.03777499 39.18361504 28.02101917 45.0918031 28 51 C27.67 51 27.34 51 27 51 C26.67 34.83 26.34 18.66 26 2 C18.08 2 10.16 2 2 2 C1.67 17.84 1.34 33.68 1 50 C0.67 50 0.34 50 0 50 C0 33.5 0 17 0 0 Z " fill="#635E62" transform="translate(157,382)"/>
<path d="M0 0 C0.99 0 1.98 0 3 0 C3 0.66 3 1.32 3 2 C3.57073242 1.83701416 4.14146484 1.67402832 4.72949219 1.50610352 C7.01653267 0.99631481 8.98964456 0.88564032 11.328125 0.90234375 C12.52695312 0.90717773 12.52695312 0.90717773 13.75 0.91210938 C14.575 0.92048828 15.4 0.92886719 16.25 0.9375 C17.09046875 0.94201172 17.9309375 0.94652344 18.796875 0.95117188 C20.86461401 0.96292039 22.93231624 0.98085478 25 1 C25 1.66 25 2.32 25 3 C25.66 3 26.32 3 27 3 C27.66 4.65 28.32 6.3 29 8 C35.00860549 9.05838127 40.84627561 9.11662571 46.9375 9.0625 C47.90751953 9.05798828 48.87753906 9.05347656 49.87695312 9.04882812 C52.2513676 9.0371315 54.62565021 9.02074086 57 9 C57 7.02 57 5.04 57 3 C59.10865385 6.47307692 59.10865385 6.47307692 58.55859375 9.140625 C58.37425781 9.75421875 58.18992188 10.3678125 58 11 C53.64015539 11.12363227 49.28123945 11.21434908 44.92016602 11.2746582 C43.43691232 11.2997981 41.95378247 11.33391592 40.47094727 11.37719727 C38.33839405 11.43788258 36.20747795 11.46621116 34.07421875 11.48828125 C32.14968872 11.52755737 32.14968872 11.52755737 30.1862793 11.56762695 C27 11 27 11 25.25708008 8.55151367 C24.63482544 7.2885144 24.63482544 7.2885144 24 6 C18.13222857 3.58385882 12.06926542 2.97691153 6 5 C5.01 5.495 5.01 5.495 4 6 C4.66 7.65 5.32 9.3 6 11 C3.13275314 10.42655063 2.1385485 10.1385485 0 8 C0 7.01 0 6.02 0 5 C-0.66 4.67 -1.32 4.34 -2 4 C-1.34 2.68 -0.68 1.36 0 0 Z " fill="#353235" transform="translate(34,396)"/>
<path d="M0 0 C1.54409697 3.08819394 0.96502134 6.19002045 0.83984375 9.58984375 C0.81653352 12.2646372 0.81653352 12.2646372 3 15 C3.33 15.99 3.66 16.98 4 18 C6.46423896 19.23211948 8.15234663 19.15779908 10.90869141 19.20532227 C11.92959869 19.22526749 12.95050598 19.24521271 14.00234985 19.26576233 C15.10759003 19.28247482 16.2128302 19.29918732 17.3515625 19.31640625 C18.4807309 19.33718735 19.60989929 19.35796844 20.77328491 19.37937927 C24.39045972 19.44491335 28.00770881 19.50377774 31.625 19.5625 C34.07292444 19.60568154 36.52084128 19.64929571 38.96875 19.69335938 C44.9790875 19.80059867 50.98949935 19.90235787 57 20 C57 20.33 57 20.66 57 21 C49.62031623 21.20018061 42.24041665 21.38390217 34.85980511 21.54658794 C31.43272153 21.62264684 28.00596911 21.70438146 24.5793457 21.79907227 C20.64046104 21.90767031 16.70123773 21.99160956 12.76171875 22.07421875 C11.53039719 22.11157639 10.29907562 22.14893402 9.03044128 22.18742371 C7.88948502 22.20767105 6.74852875 22.2279184 5.57299805 22.2487793 C4.567061 22.27320602 3.56112396 22.29763275 2.52470398 22.32279968 C0 22 0 22 -1.8256073 20.63777161 C-4.35663854 17.108074 -3.34573679 12.13731692 -3 8 C-1.84120172 1.84120172 -1.84120172 1.84120172 0 0 Z " fill="#575154" transform="translate(193,439)"/>
<path d="M0 0 C5.96327899 0.1179233 11.92637998 0.242147 17.8894043 0.37231445 C19.91964104 0.41573241 21.94991592 0.45740226 23.98022461 0.49731445 C26.89188151 0.55485146 29.80334514 0.61859278 32.71484375 0.68359375 C33.6283812 0.70030624 34.54191864 0.71701874 35.48313904 0.73423767 C41.88612829 0.88612829 41.88612829 0.88612829 43 2 C43.08669432 3.4887186 43.10703494 4.981445 43.09765625 6.47265625 C43.09443359 7.37177734 43.09121094 8.27089844 43.08789062 9.19726562 C43.07532227 10.61555664 43.07532227 10.61555664 43.0625 12.0625 C43.05798828 13.01189453 43.05347656 13.96128906 43.04882812 14.93945312 C43.03700128 17.29299531 43.01906521 19.64650532 43 22 C37.72 22 32.44 22 27 22 C27 21.67 27 21.34 27 21 C31.62 21 36.24 21 41 21 C41 15.06 41 9.12 41 3 C27.47 3 13.94 3 0 3 C0 2.01 0 1.02 0 0 Z " fill="#666065" transform="translate(232,438)"/>
<path d="M0 0 C1.65 0 3.3 0 5 0 C6.20652952 2.41305904 6.133185 3.94690747 6.14526367 6.64233398 C6.15164352 7.60771591 6.15802338 8.57309784 6.16459656 9.56773376 C6.16570938 10.61659256 6.1668222 11.66545135 6.16796875 12.74609375 C6.17129715 13.82697769 6.17462555 14.90786163 6.17805481 16.02149963 C6.18312774 18.31730727 6.18546302 20.61312231 6.18530273 22.90893555 C6.1874716 26.39189188 6.20557444 29.87452238 6.22460938 33.35742188 C6.22754689 35.59114476 6.22952929 37.82486914 6.23046875 40.05859375 C6.23765427 41.08923447 6.24483978 42.11987518 6.25224304 43.18174744 C6.19769022 60.80230978 6.19769022 60.80230978 2 65 C2.06058594 63.81535156 2.12117188 62.63070312 2.18359375 61.41015625 C3.15668392 41.28461523 3.55000775 21.14257927 4 1 C2.68 0.67 1.36 0.34 0 0 Z " fill="#8D8A8C" transform="translate(360,382)"/>
<path d="M0 0 C0 0.66 0 1.32 0 2 C-4.27490367 4.47944413 -8.55558346 6.83199193 -13 9 C-13 9.99 -13 10.98 -13 12 C-13.804375 12.2475 -14.60875 12.495 -15.4375 12.75 C-16.7059375 13.36875 -16.7059375 13.36875 -18 14 C-18.3721042 15.32303717 -18.70630173 16.65737935 -19 18 C-21.0625 19.25 -21.0625 19.25 -23 20 C-22.67 21.65 -22.34 23.3 -22 25 C-23.32 24.34 -24.64 23.68 -26 23 C-26.52955806 19.97395394 -26.45690124 17.81338463 -24.93359375 15.1015625 C-19.87966068 8.69231405 -8.44459059 0 0 0 Z " fill="#7F767A" transform="translate(139,204)"/>
<path d="M0 0 C0 0.33 0 0.66 0 1 C-5.61 1 -11.22 1 -17 1 C-16.01 0.67 -15.02 0.34 -14 0 C-14 -0.66 -14 -1.32 -14 -2 C-17.96 -2 -21.92 -2 -26 -2 C-26 -1.34 -26 -0.68 -26 0 C-28.31 0 -30.62 0 -33 0 C-33 -0.33 -33 -0.66 -33 -1 C-39.6 -1 -46.2 -1 -53 -1 C-40.2015873 -9.53227513 -13.82390713 -4.80831552 0 0 Z " fill="#433E42" transform="translate(79,384)"/>
<path d="M0 0 C8.58 0 17.16 0 26 0 C26 15.18 26 30.36 26 46 C26.66 46 27.32 46 28 46 C28.309375 47.11375 28.61875 48.2275 28.9375 49.375 C29.82326483 52.7945155 29.82326483 52.7945155 31 55 C28.03824877 54.38722388 26.61941217 53.74627478 24 52 C23.67720032 49.82333374 23.67720032 49.82333374 23.7512207 47.09130859 C23.77146805 46.07040131 23.79171539 45.04949402 23.81257629 43.99765015 C23.86861275 42.33978989 23.86861275 42.33978989 23.92578125 40.6484375 C23.95222214 39.5192691 23.97866302 38.39010071 24.00590515 37.22671509 C24.09389734 33.60895263 24.20296873 29.99216833 24.3125 26.375 C24.37573478 23.92711874 24.4376016 21.47920173 24.49804688 19.03125 C24.64689885 13.02007691 24.82421173 7.01068798 25 1 C16.75 1 8.5 1 0 1 C0 0.67 0 0.34 0 0 Z " fill="#281F26" transform="translate(101,383)"/>
<path d="M0 0 C0.66 0.66 1.32 1.32 2 2 C1.67 2.66 1.34 3.32 1 4 C2.13695312 3.9278125 3.27390625 3.855625 4.4453125 3.78125 C13.98200802 3.19984529 23.44235215 2.86170606 33 3 C33 3.33 33 3.66 33 4 C25.31780889 5.64753104 17.97627121 6.35297047 10.125 6.3125 C9.08085937 6.31121094 8.03671875 6.30992187 6.9609375 6.30859375 C-0.71831699 6.21308063 -7.66522166 5.40672414 -15 3 C-15 2.67 -15 2.34 -15 2 C-9.84828377 1.90961901 -5.08086796 2.15318867 0 3 C0 2.01 0 1.02 0 0 Z " fill="#645F63" transform="translate(318,139)"/>
<path d="M0 0 C14.3779713 -0.29645302 28.38172536 -0.25617618 42 5 C42 5.33 42 5.66 42 6 C38.7 6.33 35.4 6.66 32 7 C31.67 6.01 31.34 5.02 31 4 C29.02 4 27.04 4 25 4 C25.33 5.32 25.66 6.64 26 8 C25.67 7.34 25.34 6.68 25 6 C22.87423218 5.53348793 22.87423218 5.53348793 20.4375 5.375 C19.61121094 5.30023438 18.78492188 5.22546875 17.93359375 5.1484375 C17.29550781 5.09945312 16.65742188 5.05046875 16 5 C16.33 4.34 16.66 3.68 17 3 C13.53287889 1.84429296 10.4585044 1.67164707 6.8125 1.4375 C5.54019531 1.35371094 4.26789063 1.26992187 2.95703125 1.18359375 C1.98121094 1.12300781 1.00539062 1.06242188 0 1 C0 0.67 0 0.34 0 0 Z " fill="#4C454B" transform="translate(160,199)"/>
<path d="M0 0 C4.1274511 1.79409307 7.54336088 4.51014723 11.125 7.1875 C12.46160804 8.17793618 13.79884988 9.1675176 15.13671875 10.15625 C15.79075684 10.63964844 16.44479492 11.12304688 17.11865234 11.62109375 C21.02806565 14.48644106 25.00965164 17.2490069 29 20 C28.01 20.33 27.02 20.66 26 21 C23.80859375 19.85546875 23.80859375 19.85546875 21.4375 18.1875 C20.25994141 17.37345703 20.25994141 17.37345703 19.05859375 16.54296875 C17 15 17 15 15 13 C12.93125966 12.3574765 12.93125966 12.3574765 11 12 C10.67 12.66 10.34 13.32 10 14 C9.34 13.34 8.68 12.68 8 12 C6.35 12.66 4.7 13.32 3 14 C3 13.01 3 12.02 3 11 C4.32 10.34 5.64 9.68 7 9 C6.4946875 8.43410156 5.989375 7.86820313 5.46875 7.28515625 C4.8190625 6.55167969 4.169375 5.81820312 3.5 5.0625 C2.8503125 4.33160156 2.200625 3.60070312 1.53125 2.84765625 C0 1 0 1 0 0 Z " fill="#6E696E" transform="translate(309,170)"/>
<path d="M0 0 C4.6875 3.61328125 4.6875 3.61328125 6 5 C6 5.99 6 6.98 6 8 C1.62571219 10.18714391 -4.25960135 9.22710621 -9.12084961 9.24023438 C-11.29384983 9.2499169 -13.46589463 9.28092826 -15.63867188 9.3125 C-17.02603606 9.31903269 -18.413407 9.32428212 -19.80078125 9.328125 C-21.69050659 9.34214355 -21.69050659 9.34214355 -23.6184082 9.35644531 C-27.24620565 8.97404807 -29.11660886 8.18995107 -32 6 C-32.33 5.34 -32.66 4.68 -33 4 C-31.46859375 4.47566406 -31.46859375 4.47566406 -29.90625 4.9609375 C-23.53961561 6.5525961 -17.02796552 6.46578133 -10.5 6.625 C-8.5509375 6.68300781 -8.5509375 6.68300781 -6.5625 6.7421875 C-3.37513714 6.83593347 -0.1877721 6.92164349 3 7 C3 6.01 3 5.02 3 4 C2.01 3.67 1.02 3.34 0 3 C0 2.01 0 1.02 0 0 Z " fill="#757275" transform="translate(456,452)"/>
<path d="M0 0 C4.22574412 2.77274802 8.3236872 5.66151945 12.375 8.6875 C12.92027344 9.09033203 13.46554687 9.49316406 14.02734375 9.90820312 C15.37095637 10.913387 16.68825255 11.95357364 18 13 C18 13.33 18 13.66 18 14 C13.79117368 14.19575936 10.78735524 13.89367762 7 12 C6.34 11.34 5.68 10.68 5 10 C4.01 9.67 3.02 9.34 2 9 C1.67 8.34 1.34 7.68 1 7 C0.34 7 -0.32 7 -1 7 C-0.67 4.69 -0.34 2.38 0 0 Z " fill="#2B282C" transform="translate(252,240)"/>
<path d="M0 0 C0.33 0.66 0.66 1.32 1 2 C0.566875 3.051875 0.566875 3.051875 0.125 4.125 C-1.30624915 7.78263671 -1.60300314 11.09619753 -2 15 C-2.78375 14.79375 -3.5675 14.5875 -4.375 14.375 C-5.24125 14.25125 -6.1075 14.1275 -7 14 C-7.66 14.66 -8.32 15.32 -9 16 C-13 16 -13 16 -15 15 C-10.05 10.05 -5.1 5.1 0 0 Z " fill="#484147" transform="translate(245,17)"/>
<path d="M0 0 C4.31248609 -0.02886537 8.62494762 -0.04675255 12.9375 -0.0625 C14.16919922 -0.07087891 15.40089844 -0.07925781 16.66992188 -0.08789062 C17.83974609 -0.09111328 19.00957031 -0.09433594 20.21484375 -0.09765625 C21.84087524 -0.10551147 21.84087524 -0.10551147 23.49975586 -0.11352539 C26 0 26 0 27 1 C27.15764405 2.77869726 27.25100677 4.56318476 27.31640625 6.34765625 C27.35830078 7.42724609 27.40019531 8.50683594 27.44335938 9.61914062 C27.48267578 10.75544922 27.52199219 11.89175781 27.5625 13.0625 C27.60568359 14.20267578 27.64886719 15.34285156 27.69335938 16.51757812 C27.79982839 19.34492195 27.90184207 22.17235738 28 25 C28.66 24.67 29.32 24.34 30 24 C29.34 25.32 28.68 26.64 28 28 C27.01 28 26.02 28 25 28 C25 19.09 25 10.18 25 1 C16.75 1 8.5 1 0 1 C0 0.67 0 0.34 0 0 Z " fill="#453C43" transform="translate(373,382)"/>
<path d="M0 0 C0.33 0 0.66 0 1 0 C1.13559675 2.56428515 1.23433188 5.12135216 1.3125 7.6875 C1.35439453 8.40873047 1.39628906 9.12996094 1.43945312 9.87304688 C1.53174131 13.91526931 1.43525486 15.47403529 -1.23046875 18.6953125 C-2.60138672 19.83613281 -2.60138672 19.83613281 -4 21 C-6.32723985 23.5785199 -8.62154962 26.18357269 -10.9140625 28.79296875 C-13 31 -13 31 -16 33 C-16.33 31.68 -16.66 30.36 -17 29 C-15.68 28.67 -14.36 28.34 -13 28 C-13.33 27.01 -13.66 26.02 -14 25 C-12.1875 23.4375 -12.1875 23.4375 -10 22 C-9.01 22.33 -8.02 22.66 -7 23 C-7.33 21.68 -7.66 20.36 -8 19 C-6.35 18.67 -4.7 18.34 -3 18 C-3 16.68 -3 15.36 -3 14 C-2.34 13.67 -1.68 13.34 -1 13 C-0.53045739 9.95418731 -0.53045739 9.95418731 -0.375 6.4375 C-0.30023438 5.23996094 -0.22546875 4.04242188 -0.1484375 2.80859375 C-0.09945313 1.88175781 -0.05046875 0.95492188 0 0 Z " fill="#4E484C" transform="translate(273,383)"/>
<path d="M0 0 C9.9 0 19.8 0 30 0 C30.33 0.99 30.66 1.98 31 3 C31.66 3 32.32 3 33 3 C33 3.99 33 4.98 33 6 C31.68 5.34 30.36 4.68 29 4 C29 3.67 29 3.34 29 3 C15.14 2.505 15.14 2.505 1 2 C1.66 3.98 2.32 5.96 3 8 C2.01 8 1.02 8 0 8 C0 5.36 0 2.72 0 0 Z " fill="#080509" transform="translate(9,436)"/>
<path d="M0 0 C11.55 0 23.1 0 35 0 C33.92690167 4.2923933 33.36088194 4.93435824 30.125 7.625 C29.42632812 8.21539062 28.72765625 8.80578125 28.0078125 9.4140625 C26 11 26 11 23 13 C22.75 6.375 22.75 6.375 25 3 C25.33 3.66 25.66 4.32 26 5 C26.99 5.33 27.98 5.66 29 6 C29 5.01 29 4.02 29 3 C29.99 3 30.98 3 32 3 C32 2.34 32 1.68 32 1 C21.44 1 10.88 1 0 1 C0 0.67 0 0.34 0 0 Z " fill="#453E43" transform="translate(426,382)"/>
<path d="M0 0 C-7.45310436 5.71466314 -7.45310436 5.71466314 -10.875 7.5 C-13.77139891 9.54451688 -14.17725194 11.63421249 -15 15 C-15.66 15 -16.32 15 -17 15 C-16.34 20.94 -15.68 26.88 -15 33 C-18.73370009 29.26629991 -19.1395278 26.86854524 -19.25 21.75 C-19.083222 13.25822 -16.07344328 8.50456364 -10.03515625 2.6640625 C-6.51704755 -0.21254845 -4.45390457 -1.5906802 0 0 Z " fill="#6D656C" transform="translate(26,384)"/>
<path d="M0 0 C0.33 0 0.66 0 1 0 C1.00808685 0.57549591 1.01617371 1.15099182 1.02450562 1.743927 C1.11072073 7.74649745 1.21023146 13.74874411 1.31738281 19.75097656 C1.35560988 21.98952791 1.39047361 24.22813937 1.421875 26.46679688 C1.46766148 29.68902026 1.52563414 32.91083207 1.5859375 36.1328125 C1.59748871 37.12991241 1.60903992 38.12701233 1.62094116 39.15432739 C1.79878705 47.94323646 1.79878705 47.94323646 6.125 55.375 C6.74375 55.91125 7.3625 56.4475 8 57 C1.125 56.125 1.125 56.125 0 55 C-0.0935919 53.28134591 -0.11744611 51.55884256 -0.11352539 49.83764648 C-0.11344986 48.73658066 -0.11337433 47.63551483 -0.11329651 46.50108337 C-0.10813522 45.3031868 -0.10297394 44.10529022 -0.09765625 42.87109375 C-0.0962413 41.65172623 -0.09482635 40.4323587 -0.09336853 39.17604065 C-0.08774967 35.2631693 -0.07519396 31.35035419 -0.0625 27.4375 C-0.05748743 24.79231853 -0.0529241 22.14713617 -0.04882812 19.50195312 C-0.03777411 13.00128274 -0.02101764 6.50064539 0 0 Z " fill="#827F80" transform="translate(307,383)"/>
<path d="M0 0 C0.33 0.99 0.66 1.98 1 3 C0.52949219 3.31453125 0.05898437 3.6290625 -0.42578125 3.953125 C-3.93732861 6.36685942 -6.52540819 8.48347479 -9 12 C-9.66 12 -10.32 12 -11 12 C-11 12.66 -11 13.32 -11 14 C-10.01 14.33 -9.02 14.66 -8 15 C-13.625 17 -13.625 17 -17 17 C-17.66 16.67 -18.32 16.34 -19 16 C-15.62209703 12.5299724 -12.13504664 9.36300616 -8.375 6.3125 C-7.43398437 5.54550781 -6.49296875 4.77851562 -5.5234375 3.98828125 C-3 2 -3 2 0 0 Z " fill="#3B343A" transform="translate(211,48)"/>
<path d="M0 0 C6.72505349 4.24872538 13.40375316 8.55364102 20 13 C16.50581737 14.16472754 14.5736062 13.6082734 11 13 C10.01 13.495 10.01 13.495 9 14 C9 12.35 9 10.7 9 9 C8.34 9.66 7.68 10.32 7 11 C4.525 10.01 4.525 10.01 2 9 C2.04125 8.2575 2.0825 7.515 2.125 6.75 C1.99456362 3.88039954 1.3454765 2.47906694 0 0 Z " fill="#5C575C" transform="translate(355,97)"/>
<path d="M0 0 C-16.75525227 15.1415292 -16.75525227 15.1415292 -22 19 C-21.71125 18.443125 -21.4225 17.88625 -21.125 17.3125 C-19.92638182 14.99761036 -19.92638182 14.99761036 -19.1875 12.375 C-18 10 -18 10 -15.375 8.6875 C-14.59125 8.460625 -13.8075 8.23375 -13 8 C-13 7.01 -13 6.02 -13 5 C-11.68 5 -10.36 5 -9 5 C-9.33 4.01 -9.66 3.02 -10 2 C-4.10714286 -1.34821429 -4.10714286 -1.34821429 0 0 Z " fill="#4F4C4F" transform="translate(280,305)"/>
<path d="M0 0 C0.66 0 1.32 0 2 0 C2.2475 0.86625 2.495 1.7325 2.75 2.625 C4.06778613 6.18302254 5.80186822 8.9226155 8 12 C4.9906683 10.65302839 2.96070635 9.12079195 0.625 6.8125 C-2.23189612 4.32442378 -2.23189612 4.32442378 -6 3.8125 C-9.88946257 5.35207893 -12.70147851 7.42715324 -16 10 C-16.33 8.68 -16.66 7.36 -17 6 C-16.01 6 -15.02 6 -14 6 C-13.67 5.01 -13.34 4.02 -13 3 C-11.68 3 -10.36 3 -9 3 C-9 2.34 -9 1.68 -9 1 C-3.25 0.875 -3.25 0.875 -1 2 C-0.67 1.34 -0.34 0.68 0 0 Z " fill="#4E484E" transform="translate(224,80)"/>
<path d="M0 0 C2.88916016 -0.34057617 2.88916016 -0.34057617 6.5390625 -0.29296875 C8.49199219 -0.2784668 8.49199219 -0.2784668 10.484375 -0.26367188 C11.86458923 -0.23860388 13.24479756 -0.21320902 14.625 -0.1875 C16.01300663 -0.17245517 17.40102867 -0.15876641 18.7890625 -0.14648438 C22.19309509 -0.1110257 25.59635622 -0.06160298 29 0 C29 0.66 29 1.32 29 2 C28.01 2 27.02 2 26 2 C26 2.99 26 3.98 26 5 C24.68 4.67 23.36 4.34 22 4 C22 3.34 22 2.68 22 2 C14.08 2.33 6.16 2.66 -2 3 C-1.34 2.01 -0.68 1.02 0 0 Z " fill="#0E0A0D" transform="translate(429,383)"/>
<path d="M0 0 C0 2.33333333 0 4.66666667 0 7 C-0.969375 7.28875 -1.93875 7.5775 -2.9375 7.875 C-6.10664203 8.64214682 -6.10664203 8.64214682 -7 11 C-6.34 11.33 -5.68 11.66 -5 12 C-5.68707031 12.39832031 -6.37414062 12.79664063 -7.08203125 13.20703125 C-7.98308594 13.73683594 -8.88414062 14.26664062 -9.8125 14.8125 C-10.70582031 15.33457031 -11.59914062 15.85664063 -12.51953125 16.39453125 C-14.66831987 17.78532199 -16.29361617 19.1122066 -18 21 C-18.66 20.67 -19.32 20.34 -20 20 C-13.4 13.4 -6.8 6.8 0 0 Z " fill="#5B575B" transform="translate(225,407)"/>
<path d="M0 0 C4.34157052 -0.09905303 8.68253854 -0.17155301 13.02490234 -0.21972656 C14.5012559 -0.23981301 15.97753019 -0.26708801 17.45361328 -0.30175781 C19.57864962 -0.35041184 21.70263234 -0.37299673 23.828125 -0.390625 C25.1059082 -0.41157227 26.38369141 -0.43251953 27.70019531 -0.45410156 C31.5787398 0.07964309 32.60774291 0.99191435 35 4 C37.51975838 6.67724328 39.60584384 8.54536165 43 10 C40.69 10.66 38.38 11.32 36 12 C34 10 34 10 33.875 7.375 C33.91625 6.59125 33.9575 5.8075 34 5 C33.34 5 32.68 5 32 5 C31.67 4.34 31.34 3.68 31 3 C27.6978772 1.8992924 25.05916721 1.79372928 21.58203125 1.68359375 C20.32841797 1.64169922 19.07480469 1.59980469 17.78320312 1.55664062 C15.81770508 1.49766602 15.81770508 1.49766602 13.8125 1.4375 C12.47720022 1.39429008 11.14191348 1.350675 9.80664062 1.30664062 C6.53786703 1.20043498 3.26901667 1.09839003 0 1 C0 0.67 0 0.34 0 0 Z " fill="#878688" transform="translate(8,434)"/>
<path d="M0 0 C0.6875 1.625 0.6875 1.625 1 4 C0.04849345 6.02352052 -0.94843432 8.02662482 -2 10 C-4.35448675 10.05454409 -6.70767875 10.0939279 -9.0625 10.125 C-10.37347656 10.14820313 -11.68445313 10.17140625 -13.03515625 10.1953125 C-17.11824299 9.99417522 -20.14999053 9.27165462 -24 8 C-23.67 7.01 -23.34 6.02 -23 5 C-21.7315625 5.495 -21.7315625 5.495 -20.4375 6 C-14.63150726 7.68901607 -9.51229795 7.57240571 -4 5 C-1.63637584 2.50626957 -1.63637584 2.50626957 0 0 Z " fill="#51494F" transform="translate(156,433)"/>
<path d="M0 0 C7.60012606 3.81925527 14.42843612 8.61821164 21 14 C21 14.33 21 14.66 21 15 C19.02 15 17.04 15 15 15 C14.67 14.01 14.34 13.02 14 12 C12.35 12 10.7 12 9 12 C8.79375 11.236875 8.5875 10.47375 8.375 9.6875 C6.5773014 6.17381638 4.47032759 5.69824542 1 4 C0.31640625 1.91015625 0.31640625 1.91015625 0 0 Z " fill="#544F54" transform="translate(278,148)"/>
<path d="M0 0 C0.33 0 0.66 0 1 0 C1.01458252 1.08418213 1.02916504 2.16836426 1.04418945 3.28540039 C1.10243472 7.33178664 1.1796647 11.37763159 1.26245117 15.42358398 C1.29557767 17.17023899 1.32364737 18.91699788 1.34643555 20.66381836 C1.38020881 23.1838787 1.43253347 25.70299752 1.48828125 28.22265625 C1.49467117 28.99585709 1.5010611 29.76905792 1.50764465 30.56568909 C1.64639649 35.75457007 2.68712611 39.34590202 5 44 C5.556875 45.134375 6.11375 46.26875 6.6875 47.4375 C7.120625 48.283125 7.55375 49.12875 8 50 C3.96379847 48.65459949 3.14832694 46.58054491 1 43 C0.09791877 40.2937563 -0.12227599 38.76149014 -0.11352539 35.98754883 C-0.11344986 35.18694534 -0.11337433 34.38634186 -0.11329651 33.56147766 C-0.10813522 32.70201035 -0.10297394 31.84254303 -0.09765625 30.95703125 C-0.0962413 30.0734343 -0.09482635 29.18983734 -0.09336853 28.27946472 C-0.08777069 25.45710872 -0.07521861 22.63483203 -0.0625 19.8125 C-0.05748472 17.89908969 -0.05292186 15.98567813 -0.04882812 14.07226562 C-0.03780197 9.38147986 -0.02053883 4.69075337 0 0 Z " fill="#1E1819" transform="translate(101,404)"/>
<path d="M0 0 C-5.00896377 5.00896377 -14.13373426 4.44024454 -20.8125 4.6875 C-22.2658374 4.74828735 -22.2658374 4.74828735 -23.74853516 4.81030273 C-30.22771338 5.04181869 -36.57665906 4.99884488 -43 4 C-43 3.67 -43 3.34 -43 3 C-42.16339844 2.98018066 -41.32679688 2.96036133 -40.46484375 2.93994141 C-37.32609654 2.86129893 -34.18769914 2.77458997 -31.04931641 2.68261719 C-29.03694667 2.62603877 -27.02432773 2.57855912 -25.01171875 2.53125 C-16.6172281 2.27814978 -8.22901081 -0.41145054 0 0 Z " fill="#898688" transform="translate(170,458)"/>
<path d="M0 0 C0.66 0.33 1.32 0.66 2 1 C2 1.33 2 1.66 2 2 C2.99 1.67 3.98 1.34 5 1 C3.94124926 4.40312738 2.99097846 7.01353231 1 10 C1.99 11.32 2.98 12.64 4 14 C0.17207132 12.4404735 -2.36359864 10.16368164 -5 7 C-5.0625 4.875 -5.0625 4.875 -4 3 C-1.9375 1.25 -1.9375 1.25 0 0 Z " fill="#3F393C" transform="translate(117,110)"/>
<path d="M0 0 C0.66 0.99 1.32 1.98 2 3 C2.33 2.67 2.66 2.34 3 2 C3.66 1.34 4.32 0.68 5 0 C4.77054269 5.62170399 3.34939318 8.39632556 -0.33203125 12.6171875 C-2.20903587 14.17329906 -3.61866973 14.59708512 -6 15 C-5.67 13.35 -5.34 11.7 -5 10 C-4.01 10.33 -3.02 10.66 -2 11 C-2 8.69 -2 6.38 -2 4 C-1.34 4 -0.68 4 0 4 C-0.33 3.01 -0.66 2.02 -1 1 C-0.67 0.67 -0.34 0.34 0 0 Z " fill="#454043" transform="translate(178,442)"/>
<path d="M0 0 C2.64 0 5.28 0 8 0 C7.67 0.99 7.34 1.98 7 3 C7.66 3.66 8.32 4.32 9 5 C9.78375 4.938125 10.5675 4.87625 11.375 4.8125 C14 5 14 5 16 7.1875 C16.66 8.115625 17.32 9.04375 18 10 C18.886875 10.886875 19.77375 11.77375 20.6875 12.6875 C23 15 23 15 24 17 C19.10175028 14.67790805 14.77523769 11.55467272 10.3125 8.5 C9.43271484 7.90574219 8.55292969 7.31148437 7.64648438 6.69921875 C6.81052734 6.12816406 5.97457031 5.55710938 5.11328125 4.96875 C4.34798096 4.44732422 3.58268066 3.92589844 2.79418945 3.38867188 C1 2 1 2 0 0 Z " fill="#484449" transform="translate(129,130)"/>
<path d="M0 0 C0.495 0.639375 0.99 1.27875 1.5 1.9375 C4.35367656 5.43325379 7.35892103 8.76786187 10.390625 12.109375 C12 14 12 14 12 15 C9.75 15.25 9.75 15.25 7 15 C4.6875 13.125 4.6875 13.125 3 11 C3 10.34 3 9.68 3 9 C2.01 9.33 1.02 9.66 0 10 C-0.95024979 6.30458414 -0.95024979 3.69541586 0 0 Z " fill="#322F33" transform="translate(425,418)"/>
<path d="M0 0 C1.11375 0.1546875 1.11375 0.1546875 2.25 0.3125 C0.77307692 5.97403846 0.77307692 5.97403846 -1.875 7.6875 C-2.803125 7.996875 -2.803125 7.996875 -3.75 8.3125 C-3.42 9.9625 -3.09 11.6125 -2.75 13.3125 C-4.07 12.6525 -5.39 11.9925 -6.75 11.3125 C-7.09718988 7.58020881 -6.98503152 5.71292406 -5.0625 2.4375 C-2.75 0.3125 -2.75 0.3125 0 0 Z " fill="#191116" transform="translate(119.75,215.6875)"/>
<path d="M0 0 C2.5 1.3125 2.5 1.3125 5 3 C5 3.99 5 4.98 5 6 C0.43751341 6.02906612 -4.1249493 6.04682113 -8.6875 6.0625 C-9.98107422 6.07087891 -11.27464844 6.07925781 -12.60742188 6.08789062 C-14.47817383 6.09272461 -14.47817383 6.09272461 -16.38671875 6.09765625 C-18.10701294 6.10551147 -18.10701294 6.10551147 -19.86206055 6.11352539 C-22.70263777 6.01075807 -25.24043792 5.65316416 -28 5 C-28 4.34 -28 3.68 -28 3 C-26.74509766 3.10828125 -26.74509766 3.10828125 -25.46484375 3.21875 C-16.6080744 3.92493759 -7.88162574 4.11195327 1 4 C0.67 2.68 0.34 1.36 0 0 Z " fill="#0C060C" transform="translate(454,453)"/>
<path d="M0 0 C0.66 0 1.32 0 2 0 C2 0.99 2 1.98 2 3 C2.66 3.33 3.32 3.66 4 4 C2.0238076 6.00301854 0.04425526 8.00249867 -1.9375 10 C-2.50146484 10.57234375 -3.06542969 11.1446875 -3.64648438 11.734375 C-5.07878776 13.17525505 -6.53741129 14.58987143 -8 16 C-8.33 16 -8.66 16 -9 16 C-9 14.35 -9 12.7 -9 11 C-8.01 10.67 -7.02 10.34 -6 10 C-4.94978897 8.15028304 -4.94978897 8.15028304 -4 6 C-3.01268258 4.65724831 -2.01405257 3.32267727 -1 2 C-0.67 1.34 -0.34 0.68 0 0 Z " fill="#2D262B" transform="translate(243,422)"/>
<path d="M0 0 C5.26065508 2.68190259 8.65347481 5.08479112 12 10 C11 13 11 13 8.5625 14.75 C7.2940625 15.36875 7.2940625 15.36875 6 16 C5.34 15.67 4.68 15.34 4 15 C4.66 14.34 5.32 13.68 6 13 C6.16681109 9.91652174 6.16681109 9.91652174 6 7 C5.01 6.67 4.02 6.34 3 6 C3 5.34 3 4.68 3 4 C2.34 4 1.68 4 1 4 C0.67 2.68 0.34 1.36 0 0 Z " fill="#494246" transform="translate(377,220)"/>
<path d="M0 0 C-1.38158653 2.97572482 -2.75248825 5.59476812 -5 8 C-7.69921875 8.609375 -7.69921875 8.609375 -10.6875 8.75 C-11.68136719 8.80671875 -12.67523438 8.8634375 -13.69921875 8.921875 C-14.45847656 8.94765625 -15.21773438 8.9734375 -16 9 C-13.50506504 6.18368359 -10.73437182 4.59044019 -7.4375 2.8125 C-6.46683594 2.28269531 -5.49617187 1.75289063 -4.49609375 1.20703125 C-2 0 -2 0 0 0 Z " fill="#4D4549" transform="translate(135,101)"/>
<path d="M0 0 C-0.25702474 4.3694206 -0.60023333 6.51822991 -3.4375 9.9375 C-6 12 -6 12 -8 12 C-8.66 10.02 -9.32 8.04 -10 6 C-8.35 6 -6.7 6 -5 6 C-5.33 5.01 -5.66 4.02 -6 3 C-1.125 0 -1.125 0 0 0 Z " fill="#322E2E" transform="translate(362,444)"/>
<path d="M0 0 C-1.65 1.65 -3.3 3.3 -5 5 C-3.35 4.34 -1.7 3.68 0 3 C0 3.66 0 4.32 0 5 C-2.25 6.6875 -2.25 6.6875 -5 8 C-7.1875 7.6875 -7.1875 7.6875 -9 7 C-11.42797311 7 -13.62907005 7.50085685 -16 8 C-12.59386011 4.21540012 -5.23110371 -2.61555185 0 0 Z " fill="#565055" transform="translate(175,78)"/>
<path d="M0 0 C0 3 0 3 -2 6 C-1.01 6 -0.02 6 1 6 C1 6.66 1 7.32 1 8 C0.34 8 -0.32 8 -1 8 C-1 8.66 -1 9.32 -1 10 C-5.455 11.485 -5.455 11.485 -10 13 C-8.878962 8.51584798 -7.70153664 7.3761196 -4.4375 4.25 C-3.61121094 3.45078125 -2.78492188 2.6515625 -1.93359375 1.828125 C-1.29550781 1.22484375 -0.65742188 0.6215625 0 0 Z " fill="#3E393D" transform="translate(204,428)"/>
<path d="M0 0 C6.74554853 0.87039336 13.63132785 3.68161651 18 9 C17.67 9.66 17.34 10.32 17 11 C13.62537285 10.45276317 11.91765 9.9451 9 8 C8.34 7.67 7.68 7.34 7 7 C7 6.01 7 5.02 7 4 C4.69 3.01 2.38 2.02 0 1 C0 0.67 0 0.34 0 0 Z " fill="#444143" transform="translate(74,414)"/>
<path d="M0 0 C0.66 1.32 1.32 2.64 2 4 C-3.2031348 8.96112853 -3.2031348 8.96112853 -6.5625 9.125 C-9.74304376 7.65705673 -11.67714464 5.58832455 -14 3 C-12.02 3.66 -10.04 4.32 -8 5 C-7.67 4.34 -7.34 3.68 -7 3 C-6.34 3.66 -5.68 4.32 -5 5 C-3.35 3.35 -1.7 1.7 0 0 Z " fill="#423D40" transform="translate(256,321)"/>
<path d="M0 0 C3.89254042 -0.07485655 7.24107857 0.06026964 11 1 C11.99 0.67 12.98 0.34 14 0 C14.68707555 2.49064888 15 4.37886292 15 7 C4.11971831 4.02112676 4.11971831 4.02112676 0 1 C0 0.67 0 0.34 0 0 Z " fill="#2F282E" transform="translate(288,134)"/>
<path d="M0 0 C3.78459259 2.12289871 6.91264705 4.52477019 10.125 7.4375 C10.97320312 8.19933594 11.82140625 8.96117187 12.6953125 9.74609375 C14.72135736 11.72749694 16.3835839 13.68102397 18 16 C15.25851328 15.62952882 13.41406801 15.31412056 11.1875 13.625 C10 12 10 12 10 9 C9.21625 8.690625 8.4325 8.38125 7.625 8.0625 C5 7 5 7 3 6 C3 5.01 3 4.02 3 3 C2.01 2.67 1.02 2.34 0 2 C0 1.34 0 0.68 0 0 Z " fill="#928A8D" transform="translate(253,17)"/>
<path d="M0 0 C4.80002295 3.16523252 9.5755035 6.36611534 14.3125 9.625 C15.51326172 10.44871094 15.51326172 10.44871094 16.73828125 11.2890625 C19.04043794 13.03059036 21.00941663 14.9137593 23 17 C15.96674307 14.44245203 7.21075735 10.31613602 3 4 C2.01 3.67 1.02 3.34 0 3 C0 2.01 0 1.02 0 0 Z " fill="#817B81" transform="translate(338,191)"/>
<path d="M0 0 C4.75 1.875 4.75 1.875 7 3 C7.99 2.95875 8.98 2.9175 10 2.875 C10.99 2.91625 11.98 2.9575 13 3 C13.99 4.485 13.99 4.485 15 6 C15.66 6 16.32 6 17 6 C17 6.66 17 7.32 17 8 C16.34 8 15.68 8 15 8 C15 8.66 15 9.32 15 10 C11.13518578 8.61423779 8.03192572 6.81080359 4.6875 4.4375 C3.80449219 3.81746094 2.92148438 3.19742188 2.01171875 2.55859375 C1.34785156 2.04425781 0.68398437 1.52992188 0 1 C0 0.67 0 0.34 0 0 Z " fill="#443D41" transform="translate(168,158)"/>
<path d="M0 0 C0.33 0.66 0.66 1.32 1 2 C8.92 2.33 16.84 2.66 25 3 C25 3.66 25 4.32 25 5 C17.08 5 9.16 5 1 5 C0.67 3.35 0.34 1.7 0 0 Z " fill="#676466" transform="translate(373,456)"/>
<path d="M0 0 C5.81254687 3.26955761 11.37567582 7.17461825 16 12 C15.443125 11.855625 14.88625 11.71125 14.3125 11.5625 C11.88615805 10.97230872 9.45093655 10.476571 7 10 C7 9.34 7 8.68 7 8 C5.68 8.33 4.36 8.66 3 9 C2.34 8.01 1.68 7.02 1 6 C1.33 5.01 1.66 4.02 2 3 C1.34 2.67 0.68 2.34 0 2 C0 1.34 0 0.68 0 0 Z " fill="#4A454A" transform="translate(361,208)"/>
<path d="M0 0 C4.35736543 2.39227906 8.15633482 4.82897622 12 8 C14.31497498 9.69376576 16.6564341 11.34571819 19 13 C18.01 13.495 18.01 13.495 17 14 C14.375 12.5625 14.375 12.5625 12 11 C11.01 11.99 10.02 12.98 9 14 C8 9.25 8 9.25 8 7 C7.34 7 6.68 7 6 7 C4.64567325 5.68799596 3.31266518 4.35368596 2 3 C1.34 2.67 0.68 2.34 0 2 C0 1.34 0 0.68 0 0 Z " fill="#5D575D" transform="translate(225,109)"/>
<path d="M0 0 C2 1 2 1 3.125 3.4375 C4.97469144 10.96838656 4.58538355 17.12801486 1 24 C0.67 24 0.34 24 0 24 C0 21.69 0 19.38 0 17 C0.66 17 1.32 17 2 17 C1.34 11.39 0.68 5.78 0 0 Z " fill="#767274" transform="translate(92,425)"/>
<path d="M0 0 C4.05611794 1.42332866 7.17537252 3.38591603 10.625 5.9375 C11.56601562 6.62714844 12.50703125 7.31679687 13.4765625 8.02734375 C15.48391823 9.59656146 17.26560565 11.14338323 19 13 C16.03 12.505 16.03 12.505 13 12 C13 11.34 13 10.68 13 10 C11.68 9.67 10.36 9.34 9 9 C9 8.34 9 7.68 9 7 C8.443125 6.731875 7.88625 6.46375 7.3125 6.1875 C4.78774666 4.89100504 2.36285516 3.57523677 0 2 C0 1.34 0 0.68 0 0 Z " fill="#878286" transform="translate(333,82)"/>
<path d="M0 0 C4.00538721 1.38537586 6.85703014 3.25416695 10.125 5.9375 C10.97320312 6.62714844 11.82140625 7.31679687 12.6953125 8.02734375 C14.55704338 9.62085917 16.30525837 11.23325954 18 13 C14 13 14 13 12.5 11.625 C12.005 11.08875 11.51 10.5525 11 10 C8.90010348 8.82425289 8.90010348 8.82425289 7 8 C7 7.34 7 6.68 7 6 C4.03 5.505 4.03 5.505 1 5 C0.67 3.35 0.34 1.7 0 0 Z " fill="#635F62" transform="translate(260,135)"/>
<path d="M0 0 C1.0625 1.75 1.0625 1.75 2 4 C1.67 5.32 1.34 6.64 1 8 C-9.23 8 -19.46 8 -30 8 C-30 7.67 -30 7.34 -30 7 C-15.15 6.505 -15.15 6.505 0 6 C0 4.02 0 2.04 0 0 Z " fill="#6C686B" transform="translate(91,399)"/>
<path d="M0 0 C0 2.83967231 -0.40267181 5.23735711 -1 8 C-1.94875 8.28875 -2.8975 8.5775 -3.875 8.875 C-7.29061694 10.1046221 -8.44299081 10.94787154 -10.125 14.125 C-10.41375 14.74375 -10.7025 15.3625 -11 16 C-12.32 15.67 -13.64 15.34 -15 15 C-13.54782324 13.49403892 -12.08807139 11.99537896 -10.625 10.5 C-9.81289063 9.6646875 -9.00078125 8.829375 -8.1640625 7.96875 C-6 6 -6 6 -4 6 C-4 5.34 -4 4.68 -4 4 C-3.34 4 -2.68 4 -2 4 C-1.34 2.68 -0.68 1.36 0 0 Z " fill="#5A575A" transform="translate(418,390)"/>
<path d="M0 0 C1.15242188 0.00902344 2.30484375 0.01804687 3.4921875 0.02734375 C4.36101562 0.03894531 5.22984375 0.05054688 6.125 0.0625 C6.125 0.7225 6.125 1.3825 6.125 2.0625 C3.41783758 2.96488747 1.88723232 3.18101302 -0.88671875 3.16015625 C-2.02270508 3.15532227 -2.02270508 3.15532227 -3.18164062 3.15039062 C-3.96732422 3.14201172 -4.75300781 3.13363281 -5.5625 3.125 C-6.35978516 3.12048828 -7.15707031 3.11597656 -7.97851562 3.11132812 C-9.94404257 3.0995585 -11.90953085 3.08162348 -13.875 3.0625 C-13.545 2.4025 -13.215 1.7425 -12.875 1.0625 C-8.56685156 0.04618605 -4.41108185 -0.04501104 0 0 Z " fill="#3F363C" transform="translate(352.875,380.9375)"/>
<path d="M0 0 C0 0.66 0 1.32 0 2 C0.66 2 1.32 2 2 2 C2.66 3.65 3.32 5.3 4 7 C6.31 7.33 8.62 7.66 11 8 C11 8.33 11 8.66 11 9 C7.9455869 9.29945226 5.0466808 9.42058557 2 9 C-0.8125 6.6875 -0.8125 6.6875 -3 4 C-4.31175986 2.97186389 -5.6369893 1.95915568 -7 1 C-2.25 0 -2.25 0 0 0 Z " fill="#252226" transform="translate(59,397)"/>
<path d="M0 0 C4.4729103 1.98796013 8.16161102 4.24337546 10.3125 8.75 C10.6528125 9.86375 10.6528125 9.86375 11 11 C8.36 11.99 5.72 12.98 3 14 C3 13.01 3 12.02 3 11 C4.32 10.34 5.64 9.68 7 9 C6.4946875 8.43410156 5.989375 7.86820313 5.46875 7.28515625 C4.8190625 6.55167969 4.169375 5.81820312 3.5 5.0625 C2.8503125 4.33160156 2.200625 3.60070312 1.53125 2.84765625 C0 1 0 1 0 0 Z " fill="#1A161B" transform="translate(309,170)"/>
<path d="M0 0 C2.6875 0.3125 2.6875 0.3125 5 1 C-1.15034169 8.48291572 -1.15034169 8.48291572 -5 11 C-5.33 9.68 -5.66 8.36 -6 7 C-4.68 6.67 -3.36 6.34 -2 6 C-2.33 5.01 -2.66 4.02 -3 3 C-1.8125 1.4375 -1.8125 1.4375 0 0 Z " fill="#625E61" transform="translate(262,405)"/>
<path d="M0 0 C-2.12114959 1.50571746 -4.24653615 3.00468679 -6.375 4.5 C-6.97828125 4.92925781 -7.5815625 5.35851562 -8.203125 5.80078125 C-12.7734375 9 -12.7734375 9 -15 9 C-14.625 6.0625 -14.625 6.0625 -14 3 C-13.34 2.67 -12.68 2.34 -12 2 C-12 2.66 -12 3.32 -12 4 C-8.27385847 2.88145414 -8.27385847 2.88145414 -6 0 C-2.49056604 -1.24528302 -2.49056604 -1.24528302 0 0 Z " fill="#2E292C" transform="translate(337,262)"/>
<path d="M0 0 C1.65 0.99 3.3 1.98 5 3 C5 2.01 5 1.02 5 0 C5.99 0 6.98 0 8 0 C6.61811547 3.21043882 5.07578097 5.04936365 2.375 7.25 C1.42753906 8.03117187 1.42753906 8.03117187 0.4609375 8.828125 C-0.02117187 9.21484375 -0.50328125 9.6015625 -1 10 C-1.125 3.375 -1.125 3.375 0 0 Z " fill="#474346" transform="translate(450,385)"/>
<path d="M0 0 C0.12375 0.639375 0.2475 1.27875 0.375 1.9375 C0.684375 2.9584375 0.684375 2.9584375 1 4 C1.66 4.33 2.32 4.66 3 5 C3 5.66 3 6.32 3 7 C4.98 7 6.96 7 9 7 C9.33 8.65 9.66 10.3 10 12 C5.84848662 10.55797524 2.70021555 8.4989562 -0.8125 5.875 C-1.78832031 5.15054688 -2.76414062 4.42609375 -3.76953125 3.6796875 C-4.50558594 3.12539062 -5.24164063 2.57109375 -6 2 C-2.25 0 -2.25 0 0 0 Z " fill="#403A3F" transform="translate(264,222)"/>
<path d="M0 0 C0.804375 0.495 0.804375 0.495 1.625 1 C4.5391061 2.22699204 6.86867708 2.14233286 10 2 C10 3.32 10 4.64 10 6 C10.33 6.99 10.66 7.98 11 9 C11.99 9.33 12.98 9.66 14 10 C13.01 10.495 13.01 10.495 12 11 C7.36279281 7.72469104 3.31457218 4.69564393 0 0 Z " fill="#5B5059" transform="translate(249,106)"/>
<path d="M0 0 C2.66666667 2.66666667 5.33333333 5.33333333 8 8 C7.67 8.99 7.34 9.98 7 11 C4 11 4 11 2.375 10 C0.21764945 6.86203557 0.30865344 3.76557192 0 0 Z " fill="#322F32" transform="translate(448,443)"/>
<path d="M0 0 C0.66 0.33 1.32 0.66 2 1 C1.42703238 4.59696337 0.10347171 6.25322795 -2.5 8.75 C-3.44359375 9.67039062 -3.44359375 9.67039062 -4.40625 10.609375 C-6 12 -6 12 -7 12 C-7.25 9.6875 -7.25 9.6875 -7 7 C-5.1875 5.1875 -5.1875 5.1875 -3 4 C-2.01 4 -1.02 4 0 4 C0 2.68 0 1.36 0 0 Z " fill="#292429" transform="translate(255,412)"/>
<path d="M0 0 C1.10868317 3.32604951 1.54177532 6.53058454 2 10 C0.35 10.33 -1.3 10.66 -3 11 C-2.34 9.02 -1.68 7.04 -1 5 C-1.99 4.67 -2.98 4.34 -4 4 C-4.33 3.01 -4.66 2.02 -5 1 C-3.35 0.67 -1.7 0.34 0 0 Z " fill="#0E090D" transform="translate(297,245)"/>
<path d="M0 0 C1.65 0 3.3 0 5 0 C5 1.32 5 2.64 5 4 C4.01 4.33 3.02 4.66 2 5 C2.99 5 3.98 5 5 5 C5 5.66 5 6.32 5 7 C0.94718288 5.77472971 -2.44360764 4.30119506 -6 2 C-2.25 0.875 -2.25 0.875 0 2 C0 1.34 0 0.68 0 0 Z " fill="#362E35" transform="translate(283,127)"/>
<path d="M0 0 C2.31 0.33 4.62 0.66 7 1 C3.83525695 4.25516428 0.67247209 7.32008793 -3 10 C-3.66 10 -4.32 10 -5 10 C-4.67 8.35 -4.34 6.7 -4 5 C-2.68 5 -1.36 5 0 5 C0 3.35 0 1.7 0 0 Z " fill="#342F32" transform="translate(312,272)"/>
<path d="M0 0 C4.00301032 1.76132454 7.6028977 4.26132483 11 7 C11 7.33 11 7.66 11 8 C6.78121808 8.19622241 3.82989106 7.80230168 0 6 C0.185625 5.38125 0.37125 4.7625 0.5625 4.125 C1.23686176 1.95839822 1.23686176 1.95839822 0 0 Z " fill="#423D41" transform="translate(259,246)"/>
<path d="M0 0 C2.8646211 1.44509904 5.54759163 2.91867974 8 5 C8.5 8.3125 8.5 8.3125 8 11 C6.02 10.34 4.04 9.68 2 9 C2.04125 8.2575 2.0825 7.515 2.125 6.75 C1.99456362 3.88039954 1.3454765 2.47906694 0 0 Z " fill="#403B40" transform="translate(355,97)"/>
<path d="M0 0 C0.99 0.33 1.98 0.66 3 1 C3.6875 3.0625 3.6875 3.0625 4 5 C5.65 5 7.3 5 9 5 C8.34 5.66 7.68 6.32 7 7 C2.59132188 6.70608813 -0.36337396 5.46007056 -4 3 C-2.68 2.67 -1.36 2.34 0 2 C0 1.34 0 0.68 0 0 Z " fill="#3D393E" transform="translate(21,453)"/>
<path d="M0 0 C5.80342274 1.48805711 10.17590879 4.59097555 15 8 C12 8 9 8 6 8 C5.731875 7.360625 5.46375 6.72125 5.1875 6.0625 C4.11332248 3.66868314 4.11332248 3.66868314 1 3 C0.67 2.01 0.34 1.02 0 0 Z " fill="#6F6A6F" transform="translate(202,205)"/>
<path d="M0 0 C1.6640625 1.546875 1.6640625 1.546875 3 3 C-9.66970387 2.03644647 -9.66970387 2.03644647 -15 1 C-15 0.67 -15 0.34 -15 0 C-5.03690037 -1.43911439 -5.03690037 -1.43911439 0 0 Z " fill="#7C797B" transform="translate(52,430)"/>
<path d="M0 0 C3.3 0.33 6.6 0.66 10 1 C7.46930592 3.53069408 6.01985937 4.68376954 2.9375 6.1875 C1.89916016 6.70376953 1.89916016 6.70376953 0.83984375 7.23046875 C-1 8 -1 8 -3 8 C-3 7.34 -3 6.68 -3 6 C-1.68 5.34 -0.36 4.68 1 4 C0.67 2.68 0.34 1.36 0 0 Z " fill="#524D50" transform="translate(371,128)"/>
<path d="M0 0 C4.82675589 2.41337795 7.69984002 5.86062408 11 10 C8.36 9.67 5.72 9.34 3 9 C3 7.68 3 6.36 3 5 C1.54166642 3.37485532 1.54166642 3.37485532 0 2 C0 1.34 0 0.68 0 0 Z " fill="#737073" transform="translate(437,433)"/>
<path d="M0 0 C0.33 0.99 0.66 1.98 1 3 C1.66 3 2.32 3 3 3 C3.309375 4.11375 3.61875 5.2275 3.9375 6.375 C4.82326483 9.7945155 4.82326483 9.7945155 6 12 C3.03824877 11.38722388 1.61941217 10.74627478 -1 9 C-0.67 6.03 -0.34 3.06 0 0 Z " fill="#55464E" transform="translate(126,426)"/>
<path d="M0 0 C0.33 0 0.66 0 1 0 C1.05401695 2.91691525 1.09368066 5.83282724 1.125 8.75 C1.15013672 9.9875 1.15013672 9.9875 1.17578125 11.25 C1.18222656 12.04921875 1.18867188 12.8484375 1.1953125 13.671875 C1.20578613 14.4050293 1.21625977 15.13818359 1.22705078 15.89355469 C0.96777544 18.29896076 0.19225925 19.91251494 -1 22 C-1.66 22 -2.32 22 -3 22 C-2.125 14.125 -2.125 14.125 -1 13 C-0.76518307 10.81707226 -0.58636677 8.62796826 -0.4375 6.4375 C-0.35371094 5.23996094 -0.26992188 4.04242188 -0.18359375 2.80859375 C-0.12300781 1.88175781 -0.06242187 0.95492188 0 0 Z " fill="#484346" transform="translate(338,415)"/>
<path d="M0 0 C0.99 0 1.98 0 3 0 C3 0.66 3 1.32 3 2 C3.99 2.33 4.98 2.66 6 3 C3.69 4.98 1.38 6.96 -1 9 C-0.67 7.35 -0.34 5.7 0 4 C-0.66 4 -1.32 4 -2 4 C-2 3.34 -2 2.68 -2 2 C-1.34 2 -0.68 2 0 2 C0 1.34 0 0.68 0 0 Z " fill="#3A363B" transform="translate(434,402)"/>
<path d="M0 0 C0.99 0.495 0.99 0.495 2 1 C2.433125 2.3921875 2.433125 2.3921875 2.875 3.8125 C4.06696786 7.18974227 5.32956672 8.68562449 8 11 C1.125 10.125 1.125 10.125 0 9 C-0.07179964 7.48071962 -0.08392007 5.95832518 -0.0625 4.4375 C-0.05347656 3.61121094 -0.04445313 2.78492188 -0.03515625 1.93359375 C-0.02355469 1.29550781 -0.01195312 0.65742188 0 0 Z " fill="#615F63" transform="translate(307,429)"/>
<path d="M0 0 C5.56890517 0.47986031 10.67067568 1.29915181 16 3 C16 3.33 16 3.66 16 4 C10.39 4 4.78 4 -1 4 C-0.01 3.67 0.98 3.34 2 3 C2 2.34 2 1.68 2 1 C1.34 0.67 0.68 0.34 0 0 Z " fill="#504B4F" transform="translate(63,381)"/>
<path d="M0 0 C2.99220268 1.36370299 5.29026529 2.94908083 7.75 5.125 C8.67039062 5.93324219 8.67039062 5.93324219 9.609375 6.7578125 C10.06828125 7.16773438 10.5271875 7.57765625 11 8 C7.86650268 9.04449911 7.01031744 8.93423645 4 8 C3.67 6.68 3.34 5.36 3 4 C2.34 4 1.68 4 1 4 C0.67 2.68 0.34 1.36 0 0 Z " fill="#5F5A5E" transform="translate(279,39)"/>
<path d="M0 0 C1.81242052 -0.02687279 3.62495233 -0.04633715 5.4375 -0.0625 C6.44683594 -0.07410156 7.45617187 -0.08570313 8.49609375 -0.09765625 C11 0 11 0 12 1 C13.51469448 1.23192865 15.03754562 1.41215238 16.5625 1.5625 C17.38878906 1.64628906 18.21507812 1.73007812 19.06640625 1.81640625 C19.70449219 1.87699219 20.34257812 1.93757813 21 2 C21 2.33 21 2.66 21 3 C13.64657821 3.20177072 7.05112439 3.21211746 0 1 C0 0.67 0 0.34 0 0 Z " fill="#7C757B" transform="translate(298,459)"/>
<path d="M0 0 C-8.261959 6.51936219 -8.261959 6.51936219 -13 8 C-10.75373981 2.28224679 -6.06506476 -1.81951943 0 0 Z " fill="#595359" transform="translate(26,384)"/>
<path d="M0 0 C-3.96 3.465 -3.96 3.465 -8 7 C-8.66 5.68 -9.32 4.36 -10 3 C-6.66627332 -0.65122445 -4.99473142 -1.24868285 0 0 Z " fill="#403C41" transform="translate(280,305)"/>
<path d="M0 0 C0 0.66 0 1.32 0 2 C-1.32 2.33 -2.64 2.66 -4 3 C-4 3.66 -4 4.32 -4 5 C-5.65 5.33 -7.3 5.66 -9 6 C-9.33 6.99 -9.66 7.98 -10 9 C-11.98 9.33 -13.96 9.66 -16 10 C-4.07692308 0 -4.07692308 0 0 0 Z " fill="#817481" transform="translate(151,91)"/>
<path d="M0 0 C2.31 0.33 4.62 0.66 7 1 C7 1.66 7 2.32 7 3 C7.66 3 8.32 3 9 3 C9 3.66 9 4.32 9 5 C9.99 5.33 10.98 5.66 12 6 C11.01 6.33 10.02 6.66 9 7 C6.73828125 5.8203125 6.73828125 5.8203125 4.3125 4.125 C3.50425781 3.57070313 2.69601562 3.01640625 1.86328125 2.4453125 C1.24839844 1.96835937 0.63351562 1.49140625 0 1 C0 0.67 0 0.34 0 0 Z " fill="#5A5459" transform="translate(286,452)"/>
<path d="M0 0 C1.50433594 0.01353516 1.50433594 0.01353516 3.0390625 0.02734375 C3.80992188 0.03894531 4.58078125 0.05054688 5.375 0.0625 C5.375 0.7225 5.375 1.3825 5.375 2.0625 C6.035 2.3925 6.695 2.7225 7.375 3.0625 C2.425 3.0625 -2.525 3.0625 -7.625 3.0625 C-7.625 2.4025 -7.625 1.7425 -7.625 1.0625 C-4.98041621 -0.25979189 -2.94738699 -0.03427194 0 0 Z " fill="#5B555B" transform="translate(46.625,396.9375)"/>
<path d="M0 0 C3.82352106 1.5577308 6.29205593 3.91595258 9 7 C9 7.99 9 8.98 9 10 C8.34 8.68 7.68 7.36 7 6 C6.01 6.33 5.02 6.66 4 7 C3.01 7.33 2.02 7.66 1 8 C1.33 6.02 1.66 4.04 2 2 C1.34 2 0.68 2 0 2 C0 1.34 0 0.68 0 0 Z " fill="#635F62" transform="translate(79,385)"/>
<path d="M0 0 C2.31 0 4.62 0 7 0 C3.54143152 2.94995547 0.19978515 5.22675738 -4 7 C-4.66 6.67 -5.32 6.34 -6 6 C-4.625 4.5 -4.625 4.5 -3 3 C-2.34 3 -1.68 3 -1 3 C-0.67 2.01 -0.34 1.02 0 0 Z " fill="#4F4B4D" transform="translate(363,242)"/>
<path d="M0 0 C0.33 0.99 0.66 1.98 1 3 C-0.5949008 4.19991599 -2.20126147 5.38461318 -3.8125 6.5625 C-4.70582031 7.22378906 -5.59914062 7.88507812 -6.51953125 8.56640625 C-7.33808594 9.03949219 -8.15664062 9.51257812 -9 10 C-9.99 9.67 -10.98 9.34 -12 9 C-8.04 6.03 -4.08 3.06 0 0 Z " fill="#767275" transform="translate(211,48)"/>
<path d="M0 0 C1.4391134 0.28359887 2.87625518 0.57721399 4.3125 0.875 C5.11300781 1.03742188 5.91351563 1.19984375 6.73828125 1.3671875 C9 2 9 2 12 4 C8.7 4.33 5.4 4.66 2 5 C1.34 3.35 0.68 1.7 0 0 Z " fill="#686166" transform="translate(190,201)"/>
<path d="M0 0 C5.94 1.485 5.94 1.485 12 3 C12 3.99 12 4.98 12 6 C11.01 5.34 10.02 4.68 9 4 C9.33 4.99 9.66 5.98 10 7 C5.56541027 5.6062718 3.12621626 3.39417765 0 0 Z " fill="#50454F" transform="translate(190,174)"/>
<path d="M0 0 C0.928125 0.2784375 0.928125 0.2784375 1.875 0.5625 C4.04160178 1.23686176 4.04160178 1.23686176 6 0 C7.5625 1.1875 7.5625 1.1875 9 3 C8.6875 5.6875 8.6875 5.6875 8 8 C5.95880212 6.38405168 3.95927063 4.7143618 2 3 C2 2.34 2 1.68 2 1 C1.34 0.67 0.68 0.34 0 0 Z " fill="#4C404B" transform="translate(399,431)"/>
<path d="M0 0 C2.475 0.495 2.475 0.495 5 1 C4.67 1.886875 4.34 2.77375 4 3.6875 C3.08777857 6.70923347 2.81669042 8.88373706 3 12 C1 11 1 11 0.375 9.375 C-0.12095645 6.2339425 -0.06103811 3.17398169 0 0 Z " fill="#0F070C" transform="translate(9,402)"/>
<path d="M0 0 C3.96 0 7.92 0 12 0 C12 0.66 12 1.32 12 2 C10.865625 1.979375 9.73125 1.95875 8.5625 1.9375 C5.18424326 1.58422523 5.18424326 1.58422523 4 3 C2.31391034 3.07205511 0.62499341 3.08386068 -1.0625 3.0625 C-1.98160156 3.05347656 -2.90070312 3.04445313 -3.84765625 3.03515625 C-4.55792969 3.02355469 -5.26820312 3.01195312 -6 3 C-6 2.67 -6 2.34 -6 2 C-4.02 2 -2.04 2 0 2 C0 1.34 0 0.68 0 0 Z " fill="#0C070A" transform="translate(53,382)"/>
<path d="M0 0 C1.65 0 3.3 0 5 0 C5 0.66 5 1.32 5 2 C6.32 2.33 7.64 2.66 9 3 C9 4.98 9 6.96 9 9 C8.01 9.33 7.02 9.66 6 10 C6 9.34 6 8.68 6 8 C6.66 8 7.32 8 8 8 C8 7.34 8 6.68 8 6 C6.68 5.34 5.36 4.68 4 4 C4 3.34 4 2.68 4 2 C2.68 1.34 1.36 0.68 0 0 Z " fill="#0A060A" transform="translate(375,224)"/>
<path d="M0 0 C5.32405622 2.6734043 9.63843559 4.8845759 13 10 C11.68 9.67 10.36 9.34 9 9 C9 8.34 9 7.68 9 7 C7.5459375 6.5978125 7.5459375 6.5978125 6.0625 6.1875 C5.051875 5.795625 4.04125 5.40375 3 5 C2.67 4.01 2.34 3.02 2 2 C1.34 2 0.68 2 0 2 C0 1.34 0 0.68 0 0 Z " fill="#827781" transform="translate(221,216)"/>
<path d="M0 0 C1.31611677 0.95336021 2.62778961 1.91285774 3.9375 2.875 C4.66839844 3.40867187 5.39929688 3.94234375 6.15234375 4.4921875 C8 6 8 6 9 8 C6.1875 8.625 6.1875 8.625 3 9 C2.01 8.34 1.02 7.68 0 7 C0.99 6.67 1.98 6.34 3 6 C2.01 5.34 1.02 4.68 0 4 C0 2.68 0 1.36 0 0 Z " fill="#565357" transform="translate(245,123)"/>
<path d="M0 0 C2.97 1.65 5.94 3.3 9 5 C6.33333333 5.66666667 3.66666667 6.33333333 1 7 C1 6.34 1 5.68 1 5 C0.34 5 -0.32 5 -1 5 C-0.67 3.35 -0.34 1.7 0 0 Z " fill="#514D52" transform="translate(209,98)"/>
<path d="M0 0 C0.66 0 1.32 0 2 0 C2.2475 0.86625 2.495 1.7325 2.75 2.625 C4.06778613 6.18302254 5.80186822 8.9226155 8 12 C5.03874657 10.62513234 2.39878817 9.23335451 0 7 C-1.35820896 2.71641791 -1.35820896 2.71641791 0 0 Z " fill="#433F42" transform="translate(224,80)"/>
<path d="M0 0 C0.99 0.33 1.98 0.66 3 1 C2.67 1.66 2.34 2.32 2 3 C2.66 3 3.32 3 4 3 C4 2.01 4 1.02 4 0 C4.99 0.33 5.98 0.66 7 1 C4.34345343 4.73884332 2.41889613 6.64978174 -2 8 C-1.67 7.236875 -1.34 6.47375 -1 5.6875 C0.17436686 3.00930865 0.17436686 3.00930865 0 0 Z " fill="#494449" transform="translate(85,449)"/>
<path d="M0 0 C0.66 0 1.32 0 2 0 C2.433125 1.03125 2.86625 2.0625 3.3125 3.125 C4.74912525 6.48396666 6.33421945 9.74776178 8 13 C3.90797765 11.63599255 3.09644976 9.7037279 1 6 C0.25 2.625 0.25 2.625 0 0 Z " fill="#6B6667" transform="translate(101,441)"/>
<path d="M0 0 C1.65 0.33 3.3 0.66 5 1 C1.4912812 4.09592835 -1.49197399 5.74194623 -6 7 C-6 5.68 -6 4.36 -6 3 C-3 2 -3 2 0 3 C0 2.01 0 1.02 0 0 Z " fill="#544F53" transform="translate(376,235)"/>
<path d="M0 0 C2.64 0 5.28 0 8 0 C7.67 0.99 7.34 1.98 7 3 C8.98 4.65 10.96 6.3 13 8 C9.18008284 8 7.88692091 6.76738773 4.8125 4.5625 C3.91144531 3.92441406 3.01039063 3.28632813 2.08203125 2.62890625 C1.39496094 2.09136719 0.70789063 1.55382812 0 1 C0 0.67 0 0.34 0 0 Z " fill="#6D696E" transform="translate(129,130)"/>
<path d="M0 0 C4.62222222 2.37037037 4.62222222 2.37037037 6.125 4.875 C6 7 6 7 3.5625 9.75 C2.2940625 10.86375 2.2940625 10.86375 1 12 C1 9 1 9 2 7 C2.66 7 3.32 7 4 7 C4 6.01 4 5.02 4 4 C2.68 3.34 1.36 2.68 0 2 C0 1.34 0 0.68 0 0 Z " fill="#736C71" transform="translate(382,116)"/>
<path d="M0 0 C1.32 0.66 2.64 1.32 4 2 C-1.57067277 3.59162079 -6.21101581 4.20674944 -12 4 C-11.67 3.34 -11.34 2.68 -11 2 C-8.75 1.62109375 -8.75 1.62109375 -6 1.4375 C-2.69240381 1.46519462 -2.69240381 1.46519462 0 0 Z " fill="#080509" transform="translate(163,456)"/>
<path d="M0 0 C0.66 0 1.32 0 2 0 C3.00496852 3.01490557 3.10335303 5.04181692 3.0625 8.1875 C3.05347656 9.08855469 3.04445313 9.98960937 3.03515625 10.91796875 C3.02355469 11.60503906 3.01195313 12.29210937 3 13 C2.34 13 1.68 13 1 13 C0.67 8.71 0.34 4.42 0 0 Z " fill="#0D080C" transform="translate(91,429)"/>
<path d="M0 0 C0.66 0 1.32 0 2 0 C2 0.99 2 1.98 2 3 C2.66 3.33 3.32 3.66 4 4 C1.03 6.475 1.03 6.475 -2 9 C-2.20140476 5.37471432 -1.85776765 3.13498292 0 0 Z " fill="#373437" transform="translate(243,422)"/>
<path d="M0 0 C-0.125 1.75 -0.125 1.75 -1 4 C-4.0625 6.25 -4.0625 6.25 -7 8 C-6.67 6.35 -6.34 4.7 -6 3 C-5.34 3 -4.68 3 -4 3 C-4 2.34 -4 1.68 -4 1 C-2 0 -2 0 0 0 Z " fill="#2C272A" transform="translate(307,280)"/>
<path d="M0 0 C5.37305699 0.1761658 5.37305699 0.1761658 8 1 C10 4.0625 10 4.0625 11 7 C6.89188572 5.55007731 3.53144334 3.54592427 0 1 C0 0.67 0 0.34 0 0 Z " fill="#4A4448" transform="translate(122,232)"/>
<path d="M0 0 C0.66 0.33 1.32 0.66 2 1 C0.83917375 4.48247874 0.09067524 4.88819244 -2.9375 6.75 C-3.64777344 7.19859375 -4.35804688 7.6471875 -5.08984375 8.109375 C-5.72019531 8.40328125 -6.35054687 8.6971875 -7 9 C-7.66 8.67 -8.32 8.34 -9 8 C-6.03 5.36 -3.06 2.72 0 0 Z " fill="#817E80" transform="translate(228,33)"/>
<path d="M0 0 C4.6875 3.61328125 4.6875 3.61328125 6 5 C6 5.99 6 6.98 6 8 C3.36 8 0.72 8 -2 8 C-2 7.67 -2 7.34 -2 7 C-0.35 7 1.3 7 3 7 C3 6.01 3 5.02 3 4 C2.01 3.67 1.02 3.34 0 3 C0 2.01 0 1.02 0 0 Z " fill="#4E484F" transform="translate(456,452)"/>
<path d="M0 0 C2.625 0.375 2.625 0.375 5 1 C5 1.66 5 2.32 5 3 C6.9600281 4.63676257 6.9600281 4.63676257 9 6 C4.6109185 5.48964169 1.66291938 4.47785723 -2 2 C-1.34 1.34 -0.68 0.68 0 0 Z " fill="#4B464B" transform="translate(19,422)"/>
<path d="M0 0 C1.98 0 3.96 0 6 0 C7.33333333 2.66666667 8.66666667 5.33333333 10 8 C6.05205855 6.32971708 3.18203882 3.8204435 0 1 C0 0.67 0 0.34 0 0 Z " fill="#6A666A" transform="translate(202,291)"/>
<path d="M0 0 C0.33 0.99 0.66 1.98 1 3 C-0.5625 5.625 -0.5625 5.625 -3 8 C-6.25 8.8125 -6.25 8.8125 -9 9 C-6 6 -3 3 0 0 Z " fill="#524C52" transform="translate(295,250)"/>
<path d="M0 0 C0.66 0 1.32 0 2 0 C2.33 1.32 2.66 2.64 3 4 C4.32 4 5.64 4 7 4 C7.33 5.65 7.66 7.3 8 9 C4.7 7.02 1.4 5.04 -2 3 C-1.34 2.67 -0.68 2.34 0 2 C0 1.34 0 0.68 0 0 Z " fill="#574B56" transform="translate(143,243)"/>
<path d="M0 0 C0.433125 0.928125 0.86625 1.85625 1.3125 2.8125 C2.72038627 5.47184073 3.76123556 7.08105905 6 9 C1.40693504 7.5140084 -1.43569245 5.14985318 -5 2 C-2 0 -2 0 0 0 Z " fill="#3E3B3E" transform="translate(288,240)"/>
<path d="M0 0 C0.33 0.99 0.66 1.98 1 3 C0.2884375 3.61875 0.2884375 3.61875 -0.4375 4.25 C-2.16266518 6.182185 -2.56584875 7.48192275 -3 10 C-2.01 10.33 -1.02 10.66 0 11 C0 11.66 0 12.32 0 13 C-1.32 12.34 -2.64 11.68 -4 11 C-4.36630156 7.06225823 -4.30233203 5.43460229 -2 2.125 C-1.34 1.42375 -0.68 0.7225 0 0 Z " fill="#877E83" transform="translate(117,216)"/>
<path d="M0 0 C0.66 1.32 1.32 2.64 2 4 C3.32 4 4.64 4 6 4 C6 5.32 6 6.64 6 8 C1.56541027 6.6062718 -0.87378374 4.39417765 -4 1 C-2 0 -2 0 0 0 Z " fill="#4A464A" transform="translate(211,185)"/>
<path d="M0 0 C0.66 0 1.32 0 2 0 C2.226875 0.804375 2.45375 1.60875 2.6875 2.4375 C3.120625 3.283125 3.55375 4.12875 4 5 C6.54775306 5.89386164 6.54775306 5.89386164 9 6 C9 6.66 9 7.32 9 8 C5.81390075 7.64598897 4.20933322 7.16972964 1.6875 5.125 C0 3 0 3 0 0 Z " fill="#0C070D" transform="translate(12,447)"/>
<path d="M0 0 C0 0.99 0 1.98 0 3 C-1.98 3.99 -1.98 3.99 -4 5 C-4 4.34 -4 3.68 -4 3 C-5.32 2.67 -6.64 2.34 -8 2 C-5.44123378 -0.55876622 -3.37797483 -1.68898741 0 0 Z " fill="#4C464A" transform="translate(126,213)"/>
<path d="M0 0 C0.99 0.66 1.98 1.32 3 2 C3.66 2 4.32 2 5 2 C5 2.66 5 3.32 5 4 C4.34 4 3.68 4 3 4 C3 4.66 3 5.32 3 6 C-0.37503669 4.8141763 -2.64722731 3.72426311 -5 1 C-2.525 1.495 -2.525 1.495 0 2 C0 1.34 0 0.68 0 0 Z " fill="#342D30" transform="translate(180,162)"/>
<path d="M0 0 C3.63 2.31 7.26 4.62 11 7 C8 8 8 8 5.5 7.3125 C2.75375201 5.87071981 1.57198636 4.64755597 0 2 C0 1.34 0 0.68 0 0 Z " fill="#807D80" transform="translate(317,69)"/>
<path d="M0 0 C3.057952 1.73559438 5.63379989 3.38472619 8 6 C5.69 6 3.38 6 1 6 C0 3 0 3 0 0 Z " fill="#514D51" transform="translate(238,229)"/>
<path d="M0 0 C1.11375 0.598125 2.2275 1.19625 3.375 1.8125 C4.00148438 2.14894531 4.62796875 2.48539063 5.2734375 2.83203125 C7 4 7 4 9 7 C6.03 6.505 6.03 6.505 3 6 C3 5.34 3 4.68 3 4 C2.34 4 1.68 4 1 4 C0.67 2.68 0.34 1.36 0 0 Z " fill="#746F73" transform="translate(377,220)"/>
<path d="M0 0 C1.48280196 0.78483659 2.9611498 1.57809334 4.4375 2.375 C5.67306641 3.03628906 5.67306641 3.03628906 6.93359375 3.7109375 C9 5 9 5 10 7 C6.44219804 6.39009109 3.3171411 5.4216319 0 4 C0 2.68 0 1.36 0 0 Z " fill="#6E696D" transform="translate(278,148)"/>
<path d="M0 0 C4.29 0.99 8.58 1.98 13 3 C13 3.33 13 3.66 13 4 C11.20841511 4.02696365 9.41671527 4.04637917 7.625 4.0625 C6.62726563 4.07410156 5.62953125 4.08570313 4.6015625 4.09765625 C2 4 2 4 0 3 C0 2.01 0 1.02 0 0 Z " fill="#817A7F" transform="translate(132,438)"/>
<path d="M0 0 C0.66 0.33 1.32 0.66 2 1 C-1.80582524 6.30097087 -1.80582524 6.30097087 -6 7 C-6.66 7.66 -7.32 8.32 -8 9 C-7.875 7.25 -7.875 7.25 -7 5 C-4 2.8125 -4 2.8125 -1 1 C-0.67 0.67 -0.34 0.34 0 0 Z " fill="#0B050A" transform="translate(21,386)"/>
<path d="M0 0 C2 1.375 2 1.375 4 3 C4 3.66 4 4.32 4 5 C5.32 5.33 6.64 5.66 8 6 C7.67 6.99 7.34 7.98 7 9 C6.67 8.01 6.34 7.02 6 6 C5.21625 5.9175 4.4325 5.835 3.625 5.75 C1 5 1 5 -0.3125 2.9375 C-0.539375 2.298125 -0.76625 1.65875 -1 1 C-0.67 0.67 -0.34 0.34 0 0 Z " fill="#0A070A" transform="translate(224,304)"/>
<path d="M0 0 C1.32 0 2.64 0 4 0 C4 0.66 4 1.32 4 2 C6.97 2.495 6.97 2.495 10 3 C9.01 3.99 8.02 4.98 7 6 C5.83054208 5.19152271 4.66449539 4.37810888 3.5 3.5625 C2.8503125 3.11003906 2.200625 2.65757812 1.53125 2.19140625 C1.0259375 1.79824219 0.520625 1.40507812 0 1 C0 0.67 0 0.34 0 0 Z " fill="#433343" transform="translate(193,284)"/>
<path d="M0 0 C0.763125 0.309375 1.52625 0.61875 2.3125 0.9375 C4.18789677 1.67893593 6.08684652 2.36228217 8 3 C8.33 4.65 8.66 6.3 9 8 C7.68388323 7.04663979 6.37221039 6.08714226 5.0625 5.125 C4.33160156 4.59132813 3.60070312 4.05765625 2.84765625 3.5078125 C1 2 1 2 0 0 Z " fill="#443D42" transform="translate(176,270)"/>
<path d="M0 0 C0.9075 0.37125 1.815 0.7425 2.75 1.125 C5.88097015 2.30359299 5.88097015 2.30359299 8.375 1.125 C8.91125 0.75375 9.4475 0.3825 10 0 C10 2 10 2 8.8125 3.625 C6.44439338 5.42149467 4.90102749 5.23521845 2 5 C1.34 3.35 0.68 1.7 0 0 Z " fill="#5E595D" transform="translate(276,259)"/>
<path d="M0 0 C3.7952131 1.49097658 5.61042731 3.75700849 8 7 C5.25851328 6.62952882 3.41406801 6.31412056 1.1875 4.625 C0 3 0 3 0 0 Z " fill="#666166" transform="translate(263,26)"/>
<path d="M0 0 C1.32 0 2.64 0 4 0 C4 0.66 4 1.32 4 2 C4.99 2.33 5.98 2.66 7 3 C5.625 4.5 5.625 4.5 4 6 C3.34 6 2.68 6 2 6 C1.34 4.02 0.68 2.04 0 0 Z " fill="#464444" transform="translate(352,450)"/>
<path d="M0 0 C0.99 0 1.98 0 3 0 C3.33 0.99 3.66 1.98 4 3 C2.35 4.32 0.7 5.64 -1 7 C-0.67 4.69 -0.34 2.38 0 0 Z " fill="#383339" transform="translate(427,411)"/>
<path d="M0 0 C4.29 0 8.58 0 13 0 C12.67 1.32 12.34 2.64 12 4 C11.34 4 10.68 4 10 4 C10 3.01 10 2.02 10 1 C6.7 1 3.4 1 0 1 C0 0.67 0 0.34 0 0 Z " fill="#514C51" transform="translate(448,382)"/>
<path d="M0 0 C1.65 0 3.3 0 5 0 C5.99 1.98 6.98 3.96 8 6 C4.08597051 4.73058503 2.20927127 3.48832306 0 0 Z " fill="#564F55" transform="translate(217,193)"/>
<path d="M0 0 C4.43090471 1.20842856 6.98112756 2.51668565 10 6 C7.03 5.505 7.03 5.505 4 5 C4 4.34 4 3.68 4 3 C2.68 2.67 1.36 2.34 0 2 C0 1.34 0 0.68 0 0 Z " fill="#6D686E" transform="translate(342,89)"/>
<path d="M0 0 C3.36591866 1.44253657 5.51047079 3.33264727 8 6 C6.35 5.67 4.7 5.34 3 5 C2.67 5.66 2.34 6.32 2 7 C1.67 6.01 1.34 5.02 1 4 C1.33 3.67 1.66 3.34 2 3 C1.34 2.67 0.68 2.34 0 2 C0 1.34 0 0.68 0 0 Z " fill="#726671" transform="translate(300,56)"/>
<path d="M0 0 C2.475 0.99 2.475 0.99 5 2 C5 2.33 5 2.66 5 3 C7.31 3.33 9.62 3.66 12 4 C12 4.33 12 4.66 12 5 C8.94925785 5.28780586 6.03816258 5.45787911 3 5 C0.9375 2.5 0.9375 2.5 0 0 Z " fill="#3A333B" transform="translate(58,401)"/>
<path d="M0 0 C-4.95 2.97 -4.95 2.97 -10 6 C-10 5.01 -10 4.02 -10 3 C-9.01 2.67 -8.02 2.34 -7 2 C-6.67 1.34 -6.34 0.68 -6 0 C-2.49056604 -1.24528302 -2.49056604 -1.24528302 0 0 Z " fill="#595356" transform="translate(337,262)"/>
<path d="M0 0 C3.81684226 1.55500981 6.19195732 4.03595495 9 7 C6.75 6.875 6.75 6.875 4 6 C1.6875 2.9375 1.6875 2.9375 0 0 Z " fill="#8F8B8F" transform="translate(309,170)"/>
<path d="M0 0 C6.76923077 3.44615385 6.76923077 3.44615385 7.9375 6.25 C7.958125 6.8275 7.97875 7.405 8 8 C4.63820226 6.55922954 2.40843732 4.75249979 0 2 C0 1.34 0 0.68 0 0 Z " fill="#080507" transform="translate(279,151)"/>
<path d="M0 0 C0.721875 0.350625 1.44375 0.70125 2.1875 1.0625 C5.3122705 2.10409017 6.88161996 1.89096572 10 1 C9.67 2.65 9.34 4.3 9 6 C5.06326356 4.68775452 2.77280706 3.08089673 0 0 Z " fill="#4A474B" transform="translate(153,147)"/>
<path d="M0 0 C-0.33 1.32 -0.66 2.64 -1 4 C-3.31 4.33 -5.62 4.66 -8 5 C-3.16129032 0 -3.16129032 0 0 0 Z " fill="#918B90" transform="translate(159,86)"/>
<path d="M0 0 C0.1875 2.375 0.1875 2.375 0 5 C-0.99 5.66 -1.98 6.32 -3 7 C-2.67 5.68 -2.34 4.36 -2 3 C-2.99 3 -3.98 3 -5 3 C-5 2.34 -5 1.68 -5 1 C-3 0 -3 0 0 0 Z " fill="#242023" transform="translate(164,85)"/>
<path d="M0 0 C1.98 0.66 3.96 1.32 6 2 C6 1.34 6 0.68 6 0 C6.66 0 7.32 0 8 0 C7.34 1.98 6.68 3.96 6 6 C3.97945196 4.35830472 1.97956942 2.69088222 0 1 C0 0.67 0 0.34 0 0 Z " fill="#514C4C" transform="translate(407,439)"/>
<path d="M0 0 C0.66 0.33 1.32 0.66 2 1 C1.60196439 3.88575819 1.20990931 4.82189513 -1.0625 6.75 C-1.701875 7.1625 -2.34125 7.575 -3 8 C-3 6.68 -3 5.36 -3 4 C-2.01 4 -1.02 4 0 4 C0 2.68 0 1.36 0 0 Z " fill="#352E33" transform="translate(255,412)"/>
<path d="M0 0 C1.57035335 2.49409061 2.0274945 3.70443416 1.75 6.6875 C1.5025 7.450625 1.255 8.21375 1 9 C0.01 9.495 0.01 9.495 -1 10 C-1.125 3.375 -1.125 3.375 0 0 Z " fill="#332D2F" transform="translate(450,385)"/>
<path d="M0 0 C0.33 1.32 0.66 2.64 1 4 C-0.8125 5.5625 -0.8125 5.5625 -3 7 C-3.99 6.67 -4.98 6.34 -6 6 C-4.02 4.02 -2.04 2.04 0 0 Z " fill="#555258" transform="translate(425,383)"/>
<path d="M0 0 C1.32 0 2.64 0 4 0 C4 0.66 4 1.32 4 2 C3.01 2 2.02 2 1 2 C1 2.99 1 3.98 1 5 C-0.32 4.67 -1.64 4.34 -3 4 C-3 3.34 -3 2.68 -3 2 C-2.01 2 -1.02 2 0 2 C0 1.34 0 0.68 0 0 Z " fill="#0D080C" transform="translate(454,383)"/>
<path d="M0 0 C0.66 1.32 1.32 2.64 2 4 C-0.475 5.485 -0.475 5.485 -3 7 C-3.1875 4.625 -3.1875 4.625 -3 2 C-2.01 1.34 -1.02 0.68 0 0 Z " fill="#373437" transform="translate(256,321)"/>
<path d="M0 0 C0.99 0.33 1.98 0.66 3 1 C2.34 2.32 1.68 3.64 1 5 C-3.875 3.25 -3.875 3.25 -5 1 C-2.525 1.495 -2.525 1.495 0 2 C0 1.34 0 0.68 0 0 Z " fill="#342D31" transform="translate(162,255)"/>
<path d="M0 0 C1.33855056 0.78281305 2.67073644 1.57651877 4 2.375 C5.11375 3.03628906 5.11375 3.03628906 6.25 3.7109375 C6.8275 4.13632812 7.405 4.56171875 8 5 C8 5.66 8 6.32 8 7 C5.125 6.3125 5.125 6.3125 2 5 C0.625 2.375 0.625 2.375 0 0 Z " fill="#0B060A" transform="translate(288,49)"/>
<path d="M0 0 C6.875 3.75 6.875 3.75 8 6 C4.62537285 5.45276317 2.91765 4.9451 0 3 C0 2.01 0 1.02 0 0 Z " fill="#625E62" transform="translate(290,48)"/>
<path d="M0 0 C0.33 0.66 0.66 1.32 1 2 C2.89533342 2.46523063 2.89533342 2.46523063 5.0625 2.625 C6.361875 2.74875 7.66125 2.8725 9 3 C9 3.33 9 3.66 9 4 C6.36 4.33 3.72 4.66 1 5 C0.67 3.35 0.34 1.7 0 0 Z " fill="#554E51" transform="translate(373,456)"/>
<path d="M0 0 C1.27875 0.103125 2.5575 0.20625 3.875 0.3125 C4.95394531 0.39951172 4.95394531 0.39951172 6.0546875 0.48828125 C8 1 8 1 10 4 C5.78087253 3.5205537 3.20336822 2.83374881 0 0 Z " fill="#585456" transform="translate(112,456)"/>
<path d="M0 0 C0.33 0 0.66 0 1 0 C3.42857143 7.42857143 3.42857143 7.42857143 2 11 C-1.07692308 4.6 -1.07692308 4.6 -0.6875 1.5625 C-0.460625 1.046875 -0.23375 0.53125 0 0 Z " fill="#0B0709" transform="translate(103,437)"/>
<path d="M0 0 C0 2.83967231 -0.40267181 5.23735711 -1 8 C-1.66 8 -2.32 8 -3 8 C-3.33 8.66 -3.66 9.32 -4 10 C-3.5205537 5.78087253 -2.83374881 3.20336822 0 0 Z " fill="#746F72" transform="translate(12,391)"/>
<path d="M0 0 C0 2.83967231 -0.40267181 5.23735711 -1 8 C-2.32 7.67 -3.64 7.34 -5 7 C-4.67 6.01 -4.34 5.02 -4 4 C-3.34 4 -2.68 4 -2 4 C-1.34 2.68 -0.68 1.36 0 0 Z " fill="#413E42" transform="translate(418,390)"/>
<path d="M0 0 C1.32 0 2.64 0 4 0 C2.70700306 2.88437779 1.34058637 4.87219421 -1 7 C-1.04254356 5.00045254 -1.04080783 2.99958364 -1 1 C-0.67 0.67 -0.34 0.34 0 0 Z " fill="#181319" transform="translate(258,317)"/>
<path d="M0 0 C2.31 0.66 4.62 1.32 7 2 C7.33 3.65 7.66 5.3 8 7 C6.66382648 6.02471263 5.3311249 5.04466681 4 4.0625 C3.2575 3.51722656 2.515 2.97195313 1.75 2.41015625 C1.1725 1.94480469 0.595 1.47945313 0 1 C0 0.67 0 0.34 0 0 Z " fill="#635463" transform="translate(223,308)"/>
<path d="M0 0 C2.3125 0.1875 2.3125 0.1875 5 1 C6.8125 3.5625 6.8125 3.5625 8 6 C4.63408134 4.55746343 2.48952921 2.66735273 0 0 Z " fill="#7F797B" transform="translate(121,124)"/>
<path d="M0 0 C3.93673644 1.31224548 6.22719294 2.91910327 9 6 C5.59687262 4.94124926 2.98646769 3.99097846 0 2 C0 1.34 0 0.68 0 0 Z " fill="#827C81" transform="translate(235,117)"/>
<path d="M0 0 C0.8353125 0.37125 0.8353125 0.37125 1.6875 0.75 C0.0375 1.41 -1.6125 2.07 -3.3125 2.75 C-3.3125 3.41 -3.3125 4.07 -3.3125 4.75 C-4.6325 4.42 -5.9525 4.09 -7.3125 3.75 C-2.88173077 -0.31153846 -2.88173077 -0.31153846 0 0 Z " fill="#090708" transform="translate(214.3125,50.25)"/>
<path d="M0 0 C0 3.10551666 -0.5393715 4.35261084 -2 7 C-3.32 6.67 -4.64 6.34 -6 6 C-4.02 4.02 -2.04 2.04 0 0 Z " fill="#21181F" transform="translate(244,20)"/>
<path d="M0 0 C2.125 0.9375 2.125 0.9375 4 2 C1.36095629 3.41377341 -1.07120629 4.37240135 -4 5 C-2.25 1.125 -2.25 1.125 0 0 Z " fill="#3A3135" transform="translate(249,15)"/>
<path d="M0 0 C2.97 0.99 5.94 1.98 9 3 C8.01 3.66 7.02 4.32 6 5 C1.125 2.25 1.125 2.25 0 0 Z " fill="#5D595D" transform="translate(423,456)"/>
<path d="M0 0 C2.31 0 4.62 0 7 0 C3.93882432 2.62386487 3.26826873 3 -1 3 C-0.67 2.01 -0.34 1.02 0 0 Z " fill="#646163" transform="translate(76,457)"/>
<path d="M0 0 C0.66 0.66 1.32 1.32 2 2 C0 4 0 4 -1.9453125 4.1953125 C-3.96354167 4.13020833 -5.98177083 4.06510417 -8 4 C-5.33333333 2.66666667 -2.66666667 1.33333333 0 0 Z " fill="#0B0509" transform="translate(345,455)"/>
<path d="M0 0 C1.65 0.33 3.3 0.66 5 1 C3.35 2.65 1.7 4.3 0 6 C-1.125 2.25 -1.125 2.25 0 0 Z " fill="#726D71" transform="translate(262,405)"/>
<path d="M0 0 C1.98 0 3.96 0 6 0 C4.37660195 1.70884005 2.70680947 3.37446717 1 5 C0.34 5 -0.32 5 -1 5 C-0.67 3.35 -0.34 1.7 0 0 Z " fill="#5E5458" transform="translate(308,277)"/>
<path d="M0 0 C0.99 0.33 1.98 0.66 3 1 C3 1.66 3 2.32 3 3 C3.66 3.33 4.32 3.66 5 4 C4.67 4.99 4.34 5.98 4 7 C2.68 6.34 1.36 5.68 0 5 C0 3.33333333 0 1.66666667 0 0 Z " fill="#1A1519" transform="translate(227,222)"/>
<path d="M0 0 C3.26460973 1.80412643 4.88929795 2.83394693 7 6 C5.35 6 3.7 6 2 6 C2 5.01 2 4.02 2 3 C1.34 2.67 0.68 2.34 0 2 C0 1.34 0 0.68 0 0 Z " fill="#726F73" transform="translate(361,208)"/>
<path d="M0 0 C1.32 0.33 2.64 0.66 4 1 C4 2.98 4 4.96 4 7 C3.01 7 2.02 7 1 7 C1.33 5.35 1.66 3.7 2 2 C1.34 2 0.68 2 0 2 C0 1.34 0 0.68 0 0 Z " fill="#29252A" transform="translate(241,122)"/>
<path d="M0 0 C-0.33 0.99 -0.66 1.98 -1 3 C-2.84765625 3.73046875 -2.84765625 3.73046875 -5.0625 4.1875 C-5.79597656 4.34605469 -6.52945313 4.50460938 -7.28515625 4.66796875 C-8.13400391 4.83232422 -8.13400391 4.83232422 -9 5 C-6.45523312 2.20075644 -3.92372883 0 0 0 Z " fill="#979095" transform="translate(135,101)"/>
</svg>
