<?xml version="1.0" ?><!DOCTYPE svg  PUBLIC '-//W3C//DTD SVG 1.1//EN'  'http://www.w3.org/Graphics/SVG/1.1/DTD/svg11.dtd'><svg enable-background="new 0 0 144.083 144" height="144px" id="Line" version="1.1" viewBox="0 0 144.083 144" width="144.083px" xml:space="preserve" xmlns="http://www.w3.org/2000/svg" xmlns:xlink="http://www.w3.org/1999/xlink"><path d="M62.375,61.581c-0.496,0-0.902,0.171-1.215,0.516c-0.313,0.344-0.469,0.859-0.469,1.546v13.23  c0,0.688,0.158,1.205,0.475,1.552c0.316,0.349,0.719,0.521,1.209,0.521c0.512,0,0.926-0.171,1.242-0.516  c0.316-0.344,0.475-0.862,0.475-1.558v-13.23c0-0.695-0.158-1.212-0.475-1.553C63.301,61.751,62.887,61.581,62.375,61.581z"/><path d="M80.415,61.581c-0.473,0-0.85,0.163-1.127,0.487c-0.279,0.325-0.418,0.812-0.418,1.46v9.989l-6.541-9.897  c-0.184-0.29-0.361-0.568-0.533-0.836c-0.172-0.268-0.34-0.485-0.504-0.652c-0.164-0.168-0.355-0.302-0.572-0.402  c-0.217-0.099-0.48-0.148-0.785-0.148c-0.391,0-0.752,0.109-1.088,0.327c-0.336,0.217-0.578,0.498-0.723,0.841  c-0.121,0.313-0.182,0.745-0.182,1.294v12.955c0,0.634,0.145,1.116,0.436,1.448c0.289,0.332,0.674,0.499,1.156,0.499  c0.465,0,0.848-0.165,1.145-0.493c0.299-0.328,0.447-0.813,0.447-1.454V67.16l6.381,9.782c0.182,0.268,0.365,0.529,0.549,0.785  s0.383,0.479,0.596,0.67c0.215,0.191,0.443,0.33,0.688,0.418s0.52,0.132,0.824,0.132c1.223,0,1.834-0.737,1.834-2.21V63.528  c0-0.649-0.143-1.136-0.424-1.46C81.29,61.744,80.903,61.581,80.415,61.581z"/><path d="M56.614,75.865h-6.896V63.643c0-0.695-0.158-1.212-0.477-1.553c-0.316-0.339-0.73-0.509-1.242-0.509  c-0.504,0-0.91,0.171-1.219,0.516c-0.311,0.344-0.465,0.859-0.465,1.546v12.932c0,0.733,0.162,1.265,0.486,1.593  c0.326,0.328,0.857,0.492,1.6,0.492h8.213c0.557,0,0.98-0.127,1.271-0.384c0.289-0.257,0.436-0.591,0.436-1.003  c0-0.404-0.148-0.74-0.443-1.008C57.584,75.999,57.163,75.865,56.614,75.865z"/><path d="M72.042,14.166C40.1,14.166,14.208,40.059,14.208,72c0,31.94,25.893,57.834,57.834,57.834  c31.939,0,57.834-25.895,57.834-57.834C129.875,40.059,103.981,14.166,72.042,14.166z M106.903,75.754  c-1.801,4.969-5.074,9.4-9.396,12.938c-6.25,5.858-13.463,10.465-17.98,13.685c-8.441,6.016-10.236,5.547-10.98,4.791  c-0.811-0.824,1.496-4.354,1.697-7.586c0.107-1.762-1.668-2.287-2.176-2.377c-18.252-1.656-32.461-14.596-32.461-30.313  c0-16.842,16.311-30.495,36.432-30.495c20.119,0,36.432,13.653,36.432,30.495C108.567,70.053,107.981,73.002,106.903,75.754z"/><path d="M97.047,75.957h-7.926V71.18h7.057c0.525,0,0.916-0.121,1.166-0.361c0.254-0.24,0.379-0.551,0.379-0.933  s-0.127-0.689-0.383-0.922c-0.256-0.232-0.645-0.349-1.162-0.349h-7.057v-4.124h7.662c0.543,0,0.945-0.121,1.209-0.361  c0.264-0.24,0.395-0.559,0.395-0.956c0-0.39-0.131-0.705-0.395-0.945s-0.666-0.361-1.209-0.361h-8.98  c-0.48,0-0.875,0.071-1.186,0.212c-0.309,0.142-0.535,0.366-0.682,0.676c-0.145,0.31-0.217,0.708-0.217,1.197v12.623  c0,0.733,0.162,1.265,0.486,1.593s0.857,0.492,1.598,0.492h9.244c0.535,0,0.938-0.125,1.209-0.373  c0.27-0.247,0.406-0.57,0.406-0.967c0-0.413-0.137-0.743-0.406-0.991C97.985,76.08,97.583,75.957,97.047,75.957z"/></svg>