<svg xmlns="http://www.w3.org/2000/svg" version="1.0" width="1024.000000pt" height="1024.000000pt" viewBox="0 0 1024.000000 1024.000000" preserveAspectRatio="xMidYMid meet">

<g transform="translate(0.000000,1024.000000) scale(0.100000,-0.100000)" fill="#ffffff" stroke="none">
<path d="M5780 7750 c-41 -4 -111 -15 -154 -25 -62 -14 -103 -16 -185 -12 -133 8 -258 -5 -421 -43 -101 -24 -150 -30 -238 -30 -118 0 -221 -16 -317 -50 -33 -11 -103 -28 -155 -36 -159 -25 -252 -78 -416 -235 -97 -94 -103 -97 -155 -103 -30 -3 -292 -12 -584 -21 -817 -23 -1225 -43 -1287 -61 -26 -8 -22 -21 7 -28 46 -12 844 -104 1390 -161 186 -19 343 -39 348 -44 15 -15 -22 -111 -47 -120 -20 -7 -451 -24 -1496 -56 -460 -14 -793 -31 -838 -42 -46 -11 -4 -23 133 -38 77 -8 334 -37 570 -64 532 -62 1313 -148 1460 -160 82 -7 112 -14 121 -26 16 -22 29 -134 17 -146 -5 -5 -169 -14 -364 -19 -849 -23 -1221 -39 -1237 -54 -3 -3 -3 -9 0 -12 7 -6 413 -56 1178 -144 289 -33 534 -62 545 -65 11 -3 57 -38 102 -78 142 -128 235 -163 417 -159 94 1 115 -1 143 -18 96 -57 303 -90 433 -70 l75 11 77 -36 c43 -19 84 -46 92 -58 7 -12 16 -52 19 -89 6 -80 47 -176 102 -237 47 -52 156 -105 246 -120 134 -23 290 -6 391 40 27 13 51 19 55 15 4 -3 -3 -48 -15 -99 -36 -152 -43 -214 -44 -346 -1 -372 129 -722 378 -1022 300 -361 715 -546 1140 -509 570 50 1120 471 1405 1075 201 426 254 919 144 1350 -143 565 -610 1023 -1158 1136 -263 54 -561 26 -679 -64 -75 -57 -124 -184 -135 -349 -6 -84 -5 -88 17 -96 13 -5 54 -3 98 4 193 32 441 10 607 -55 177 -68 270 -145 386 -319 108 -162 146 -248 175 -402 83 -433 -10 -881 -254 -1224 -74 -105 -227 -257 -325 -324 -102 -70 -261 -145 -367 -173 -102 -27 -302 -32 -390 -10 -191 46 -361 189 -469 393 -45 85 -66 145 -85 247 -16 85 -8 82 24 -9 95 -273 323 -496 558 -545 86 -19 159 -18 247 0 71 15 205 65 205 76 0 4 -21 2 -47 -3 -27 -5 -97 -10 -158 -10 -129 0 -203 20 -303 79 -76 45 -196 167 -239 243 -154 269 -146 716 17 1077 113 249 419 558 637 644 71 28 229 37 313 19 170 -38 332 -172 463 -385 43 -70 46 -64 13 33 -48 141 -92 209 -211 327 -122 123 -189 164 -340 207 -108 30 -293 30 -445 -1 -58 -11 -115 -21 -127 -21 -48 0 -113 121 -113 210 0 75 49 284 82 350 29 58 40 69 93 97 33 18 96 47 140 64 146 58 172 94 137 187 -27 70 -74 126 -127 152 l-45 22 -87 -29 c-118 -38 -237 -37 -368 1 -49 15 -94 31 -99 36 -6 6 -1 19 12 33 12 13 22 28 22 33 0 20 -116 241 -153 292 -109 148 -321 225 -557 202z m197 -245 c68 -20 124 -63 153 -118 l24 -46 -85 -88 c-135 -140 -214 -278 -286 -493 -104 -316 -92 -635 31 -830 47 -74 39 -81 -92 -88 -126 -6 -232 15 -283 57 -47 39 -84 110 -116 227 -27 94 -28 110 -27 304 0 178 4 222 26 335 14 72 23 132 21 135 -8 9 -52 -53 -93 -131 -142 -272 -168 -632 -65 -918 11 -32 12 -48 5 -55 -17 -17 -131 -12 -166 6 -84 45 -166 176 -220 353 -26 85 -28 101 -28 280 0 132 5 221 17 290 9 55 19 118 23 140 l5 40 -21 -25 c-24 -27 -113 -200 -137 -265 -74 -199 -81 -411 -21 -632 32 -121 33 -118 -37 -117 -162 2 -288 124 -344 336 -41 151 -36 343 15 565 30 133 30 146 3 113 -36 -42 -115 -210 -147 -310 -64 -201 -66 -361 -7 -592 7 -26 5 -28 -25 -28 -50 0 -152 54 -199 105 -23 25 -57 77 -76 116 -107 223 -52 586 131 866 116 179 253 276 414 293 53 5 117 21 170 41 81 31 95 33 270 40 160 6 197 10 270 33 112 36 219 42 342 22 131 -21 156 -20 235 10 121 46 230 56 320 29z m63 -1871 c0 -3 -12 -31 -27 -62 -49 -99 -159 -187 -301 -240 -81 -30 -262 -42 -355 -22 -92 19 -147 78 -147 160 0 59 22 94 76 120 45 22 52 23 198 14 242 -14 421 -9 486 14 64 23 70 24 70 16z" fill="#ffffff"/>
<path d="M2787 5560 c-174 -30 -417 -150 -417 -207 0 -28 1 -28 293 -129 286 -99 341 -123 361 -163 23 -44 21 -188 -3 -284 -37 -142 -123 -287 -192 -322 -15 -8 -45 -15 -66 -15 -21 0 -166 41 -322 90 -157 50 -296 90 -311 90 -58 0 -63 -37 -20 -129 164 -347 462 -551 804 -551 195 0 351 71 610 277 l53 43 419 -106 c230 -58 433 -113 449 -123 36 -20 43 -59 25 -138 -14 -67 -35 -83 -154 -123 -56 -18 -102 -40 -116 -55 -21 -23 -22 -30 -16 -102 10 -110 34 -214 54 -236 16 -18 26 -19 125 -13 81 5 112 4 124 -5 8 -7 34 -55 59 -107 l43 -94 -38 -56 c-62 -92 -101 -167 -101 -194 0 -51 146 -198 197 -198 21 0 99 52 195 130 l60 48 66 -27 65 -27 31 -126 c41 -168 45 -172 161 -165 109 6 169 28 183 65 9 22 42 236 42 264 0 4 36 26 80 48 l80 40 87 -60 c114 -79 139 -80 216 -10 70 64 136 150 139 181 1 16 -25 64 -75 137 l-77 113 36 67 c45 80 103 170 115 178 19 12 6 39 -86 174 -52 77 -122 195 -154 262 -88 183 -119 288 -169 582 -15 85 -21 102 -44 119 -41 30 -82 16 -215 -74 -106 -72 -122 -79 -153 -74 -103 17 -1487 400 -1508 418 -7 5 -36 55 -64 109 -109 214 -258 358 -448 435 -118 47 -291 65 -423 43z m2665 -1427 c154 -84 188 -324 75 -523 -62 -110 -175 -208 -281 -243 -98 -33 -182 -17 -256 50 -146 132 -124 408 48 595 136 147 286 190 414 121z" fill="#ffffff"/>
<path d="M7060 5351 c-153 -47 -273 -203 -298 -387 -26 -196 45 -359 190 -436 36 -19 58 -23 133 -23 80 0 96 3 145 29 230 120 325 463 188 679 -39 62 -99 112 -156 131 -47 17 -158 20 -202 7z" fill="#ffffff"/>
</g>
</svg>